<svg width="256" height="220" viewBox="0 0 256 220" fill="none" xmlns="http://www.w3.org/2000/svg">
<g clip-path="url(#clip0_1563_53129)">
<path d="M0 5.99999C0 2.68629 2.68629 0 6 0H250C253.314 0 256 2.68629 256 6V214C256 217.314 253.314 220 250 220H6C2.68629 220 0 217.314 0 214V5.99999Z" fill="white"/>
<g clip-path="url(#clip1_1563_53129)">
<rect width="256" height="44" fill="#050558" fill-opacity="0.024"/>
<rect width="96" height="44" fill="#050558" fill-opacity="0.024"/>
<path d="M21.016 25.572L22.29 26.832L21.198 27.896L19.854 26.566C19.1633 26.9487 18.342 27.1447 17.39 27.154C15.9807 27.154 14.842 26.7013 13.974 25.796C13.0407 24.8067 12.574 23.5373 12.574 21.988C12.574 20.448 13.0407 19.1787 13.974 18.18C14.8233 17.2747 15.9667 16.822 17.404 16.822C18.832 16.822 19.9707 17.2747 20.82 18.18C21.7533 19.188 22.22 20.4573 22.22 21.988C22.22 23.3693 21.8513 24.5267 21.114 25.46L21.016 25.572ZM19.616 24.172L19.658 24.088C19.994 23.5187 20.162 22.814 20.162 21.974C20.162 20.882 19.8773 20.0233 19.308 19.398C18.8133 18.8567 18.1787 18.586 17.404 18.586C16.508 18.586 15.8033 18.936 15.29 19.636C14.8513 20.2427 14.632 21.0267 14.632 21.988C14.632 23.0987 14.9167 23.962 15.486 24.578C15.9807 25.1193 16.62 25.39 17.404 25.39C17.7773 25.39 18.132 25.3247 18.468 25.194L17.306 24.018L18.398 22.954L19.616 24.172ZM30.2074 27H28.2894V25.95C27.7668 26.7527 27.0248 27.154 26.0634 27.154C25.2141 27.154 24.5701 26.902 24.1314 26.398C23.7581 25.9593 23.5714 25.3573 23.5714 24.592V19.58H25.5034V24.186C25.5034 25.0727 25.9141 25.516 26.7354 25.516C27.2021 25.516 27.5754 25.3853 27.8554 25.124C28.1448 24.8627 28.2894 24.508 28.2894 24.06V19.58H30.2074V27ZM38.49 23.794H33.506C33.534 24.3913 33.6273 24.816 33.786 25.068C34.0566 25.4787 34.4813 25.684 35.06 25.684C35.7786 25.684 36.2593 25.3853 36.502 24.788H38.406C38.1913 25.516 37.7713 26.0947 37.146 26.524C36.53 26.944 35.8066 27.154 34.976 27.154C33.8466 27.154 32.9786 26.776 32.372 26.02C31.84 25.3573 31.574 24.4847 31.574 23.402C31.574 22.086 31.9193 21.0687 32.61 20.35C33.2166 19.734 34.0146 19.426 35.004 19.426C35.76 19.426 36.4226 19.6127 36.992 19.986C37.5613 20.3593 37.9673 20.882 38.21 21.554C38.406 22.0767 38.504 22.7067 38.504 23.444C38.504 23.5373 38.4993 23.654 38.49 23.794ZM36.488 22.52C36.3946 21.4373 35.8953 20.896 34.99 20.896C34.1406 20.896 33.6553 21.4373 33.534 22.52H36.488ZM39.8563 19.58H41.7883V20.994C42.0309 19.9487 42.7216 19.426 43.8603 19.426C44.0376 19.426 44.1636 19.426 44.2383 19.426L44.2523 21.33C44.0189 21.2833 43.7763 21.26 43.5243 21.26C42.8896 21.26 42.4509 21.3767 42.2083 21.61C41.9283 21.8713 41.7883 22.3427 41.7883 23.024V27H39.8563V19.58ZM49.752 19.58H51.726L48.674 28.344C48.4593 28.9693 48.1747 29.3987 47.82 29.632C47.4653 29.8747 46.938 29.996 46.238 29.996C45.594 29.996 45.146 29.912 44.894 29.744L45.188 28.442C45.524 28.526 45.804 28.568 46.028 28.568C46.3547 28.568 46.6347 28.456 46.868 28.232C47.1013 28.0173 47.218 27.7607 47.218 27.462V27.308L44.46 19.58H46.574L48.226 24.984L49.752 19.58ZM57.6549 16.976V27H55.5969V16.976H57.6549ZM59.7121 27V16.976H63.6321C65.0974 16.976 66.1521 17.3633 66.7961 18.138C67.6081 19.1087 68.0141 20.392 68.0141 21.988C68.0141 23.5933 67.6081 24.8767 66.7961 25.838C66.1428 26.6127 65.0881 27 63.6321 27H59.7121ZM61.7701 25.278H63.6321C65.1814 25.278 65.9561 24.1813 65.9561 21.988C65.9561 19.7947 65.1814 18.698 63.6321 18.698H61.7701V25.278Z" fill="#1C2024"/>
<rect width="160" height="44" transform="translate(96)" fill="#050558" fill-opacity="0.024"/>
<path d="M117.366 20.322H115.406C115.135 19.1647 114.421 18.586 113.264 18.586C112.396 18.586 111.729 18.9313 111.262 19.622C110.861 20.2287 110.66 21.036 110.66 22.044C110.66 23.1827 110.912 24.0507 111.416 24.648C111.855 25.1613 112.447 25.418 113.194 25.418C113.838 25.418 114.351 25.25 114.734 24.914C115.117 24.578 115.341 24.0973 115.406 23.472H117.408C117.343 24.6853 116.876 25.6233 116.008 26.286C115.261 26.8647 114.305 27.154 113.138 27.154C111.645 27.154 110.487 26.6313 109.666 25.586C108.957 24.6807 108.602 23.486 108.602 22.002C108.602 20.3033 109.069 18.9873 110.002 18.054C110.814 17.2327 111.873 16.822 113.18 16.822C114.729 16.822 115.901 17.34 116.694 18.376C117.086 18.8893 117.31 19.538 117.366 20.322ZM122.07 19.426C123.292 19.426 124.23 19.818 124.884 20.602C125.453 21.274 125.738 22.17 125.738 23.29C125.738 24.578 125.369 25.5673 124.632 26.258C123.988 26.8553 123.134 27.154 122.07 27.154C120.847 27.154 119.909 26.7667 119.256 25.992C118.686 25.3107 118.402 24.41 118.402 23.29C118.402 22.0113 118.77 21.0267 119.508 20.336C120.152 19.7293 121.006 19.426 122.07 19.426ZM122.07 20.98C121.547 20.98 121.127 21.1947 120.81 21.624C120.492 22.044 120.334 22.5993 120.334 23.29C120.334 24.0367 120.511 24.6247 120.866 25.054C121.183 25.418 121.584 25.6 122.07 25.6C122.592 25.6 123.012 25.39 123.33 24.97C123.656 24.5407 123.82 23.9807 123.82 23.29C123.82 22.5527 123.638 21.9693 123.274 21.54C122.956 21.1667 122.555 20.98 122.07 20.98ZM127.161 19.58H129.093V20.63C129.616 19.8273 130.353 19.426 131.305 19.426C132.154 19.426 132.798 19.678 133.237 20.182C133.61 20.63 133.797 21.2367 133.797 22.002V27H131.879V22.394C131.879 21.5073 131.464 21.064 130.633 21.064C130.166 21.064 129.793 21.1993 129.513 21.47C129.233 21.7313 129.093 22.0813 129.093 22.52V27H127.161V19.58ZM138.999 19.734V21.008H137.879V27H135.947V21.008H134.897V19.734H135.947V18.838C135.947 17.5967 136.573 16.976 137.823 16.976C138.122 16.976 138.495 16.99 138.943 17.018V18.46C138.757 18.432 138.575 18.418 138.397 18.418C138.052 18.418 137.879 18.614 137.879 19.006V19.734H138.999ZM142.109 19.58V27H140.177V19.58H142.109ZM141.129 17.032C141.381 17.032 141.591 17.1207 141.759 17.298C141.937 17.4753 142.025 17.69 142.025 17.942C142.025 18.194 141.937 18.4087 141.759 18.586C141.591 18.754 141.381 18.838 141.129 18.838C140.877 18.838 140.663 18.754 140.485 18.586C140.308 18.4087 140.219 18.194 140.219 17.942C140.219 17.69 140.308 17.4753 140.485 17.298C140.663 17.1207 140.877 17.032 141.129 17.032ZM150.613 16.976V27H148.681V26.174C148.233 26.8273 147.557 27.154 146.651 27.154C145.671 27.154 144.883 26.7433 144.285 25.922C143.772 25.222 143.515 24.3493 143.515 23.304C143.515 22.0627 143.842 21.0827 144.495 20.364C145.065 19.7387 145.779 19.426 146.637 19.426C147.543 19.426 148.224 19.7713 148.681 20.462V16.976H150.613ZM147.071 21.008C146.586 21.008 146.194 21.218 145.895 21.638C145.597 22.058 145.447 22.6087 145.447 23.29C145.447 23.962 145.592 24.508 145.881 24.928C146.18 25.3387 146.577 25.544 147.071 25.544C147.566 25.544 147.958 25.3387 148.247 24.928C148.546 24.5173 148.695 23.9713 148.695 23.29C148.695 22.5993 148.546 22.0487 148.247 21.638C147.949 21.218 147.557 21.008 147.071 21.008ZM158.881 23.794H153.897C153.925 24.3913 154.018 24.816 154.177 25.068C154.447 25.4787 154.872 25.684 155.451 25.684C156.169 25.684 156.65 25.3853 156.893 24.788H158.797C158.582 25.516 158.162 26.0947 157.537 26.524C156.921 26.944 156.197 27.154 155.367 27.154C154.237 27.154 153.369 26.776 152.763 26.02C152.231 25.3573 151.965 24.4847 151.965 23.402C151.965 22.086 152.31 21.0687 153.001 20.35C153.607 19.734 154.405 19.426 155.395 19.426C156.151 19.426 156.813 19.6127 157.383 19.986C157.952 20.3593 158.358 20.882 158.601 21.554C158.797 22.0767 158.895 22.7067 158.895 23.444C158.895 23.5373 158.89 23.654 158.881 23.794ZM156.879 22.52C156.785 21.4373 156.286 20.896 155.381 20.896C154.531 20.896 154.046 21.4373 153.925 22.52H156.879ZM160.247 19.58H162.179V20.63C162.702 19.8273 163.439 19.426 164.391 19.426C165.24 19.426 165.884 19.678 166.323 20.182C166.696 20.63 166.883 21.2367 166.883 22.002V27H164.965V22.394C164.965 21.5073 164.55 21.064 163.719 21.064C163.252 21.064 162.879 21.1993 162.599 21.47C162.319 21.7313 162.179 22.0813 162.179 22.52V27H160.247V19.58ZM174.927 22.296H173.093C172.981 21.8107 172.818 21.47 172.603 21.274C172.398 21.078 172.104 20.98 171.721 20.98C171.142 20.98 170.741 21.1853 170.517 21.596C170.274 22.072 170.153 22.6553 170.153 23.346C170.153 24.046 170.288 24.6013 170.559 25.012C170.839 25.4133 171.222 25.614 171.707 25.614C172.09 25.614 172.384 25.516 172.589 25.32C172.804 25.1147 172.972 24.7787 173.093 24.312H174.927C174.834 25.2453 174.46 25.9687 173.807 26.482C173.238 26.9393 172.533 27.168 171.693 27.168C170.517 27.168 169.626 26.79 169.019 26.034C168.487 25.3807 168.221 24.4987 168.221 23.388C168.221 22.044 168.571 21.0267 169.271 20.336C169.878 19.7293 170.699 19.426 171.735 19.426C172.724 19.426 173.508 19.7107 174.087 20.28C174.582 20.784 174.862 21.456 174.927 22.296ZM182.724 23.794H177.74C177.768 24.3913 177.862 24.816 178.02 25.068C178.291 25.4787 178.716 25.684 179.294 25.684C180.013 25.684 180.494 25.3853 180.736 24.788H182.64C182.426 25.516 182.006 26.0947 181.38 26.524C180.764 26.944 180.041 27.154 179.21 27.154C178.081 27.154 177.213 26.776 176.606 26.02C176.074 25.3573 175.808 24.4847 175.808 23.402C175.808 22.086 176.154 21.0687 176.844 20.35C177.451 19.734 178.249 19.426 179.238 19.426C179.994 19.426 180.657 19.6127 181.226 19.986C181.796 20.3593 182.202 20.882 182.444 21.554C182.64 22.0767 182.738 22.7067 182.738 23.444C182.738 23.5373 182.734 23.654 182.724 23.794ZM180.722 22.52C180.629 21.4373 180.13 20.896 179.224 20.896C178.375 20.896 177.89 21.4373 177.768 22.52H180.722ZM194.137 20H192.205C192.14 18.9827 191.44 18.474 190.105 18.474C189.573 18.474 189.148 18.5813 188.831 18.796C188.523 19.0107 188.369 19.3 188.369 19.664C188.369 20.0187 188.5 20.2847 188.761 20.462C189.022 20.6393 189.526 20.798 190.273 20.938L191.841 21.232C192.765 21.4093 193.437 21.7127 193.857 22.142C194.277 22.5713 194.487 23.178 194.487 23.962C194.487 25.0353 194.076 25.852 193.255 26.412C192.546 26.9067 191.589 27.154 190.385 27.154C189.013 27.154 187.968 26.8367 187.249 26.202C186.624 25.6513 186.283 24.886 186.227 23.906H188.229C188.304 24.97 189.055 25.502 190.483 25.502C191.118 25.502 191.612 25.39 191.967 25.166C192.331 24.9327 192.513 24.6153 192.513 24.214C192.513 23.822 192.368 23.5187 192.079 23.304C191.799 23.0893 191.314 22.9167 190.623 22.786L189.223 22.52C188.206 22.3333 187.478 22.0393 187.039 21.638C186.61 21.2273 186.395 20.6393 186.395 19.874C186.395 18.838 186.773 18.054 187.529 17.522C188.182 17.0553 189.069 16.822 190.189 16.822C191.542 16.822 192.56 17.13 193.241 17.746C193.829 18.2873 194.128 19.0387 194.137 20ZM202.107 22.296H200.273C200.161 21.8107 199.997 21.47 199.783 21.274C199.577 21.078 199.283 20.98 198.901 20.98C198.322 20.98 197.921 21.1853 197.697 21.596C197.454 22.072 197.333 22.6553 197.333 23.346C197.333 24.046 197.468 24.6013 197.739 25.012C198.019 25.4133 198.401 25.614 198.887 25.614C199.269 25.614 199.563 25.516 199.769 25.32C199.983 25.1147 200.151 24.7787 200.273 24.312H202.107C202.013 25.2453 201.64 25.9687 200.987 26.482C200.417 26.9393 199.713 27.168 198.873 27.168C197.697 27.168 196.805 26.79 196.199 26.034C195.667 25.3807 195.401 24.4987 195.401 23.388C195.401 22.044 195.751 21.0267 196.451 20.336C197.057 19.7293 197.879 19.426 198.915 19.426C199.904 19.426 200.688 19.7107 201.267 20.28C201.761 20.784 202.041 21.456 202.107 22.296ZM206.726 19.426C207.949 19.426 208.887 19.818 209.54 20.602C210.109 21.274 210.394 22.17 210.394 23.29C210.394 24.578 210.025 25.5673 209.288 26.258C208.644 26.8553 207.79 27.154 206.726 27.154C205.503 27.154 204.565 26.7667 203.912 25.992C203.343 25.3107 203.058 24.41 203.058 23.29C203.058 22.0113 203.427 21.0267 204.164 20.336C204.808 19.7293 205.662 19.426 206.726 19.426ZM206.726 20.98C206.203 20.98 205.783 21.1947 205.466 21.624C205.149 22.044 204.99 22.5993 204.99 23.29C204.99 24.0367 205.167 24.6247 205.522 25.054C205.839 25.418 206.241 25.6 206.726 25.6C207.249 25.6 207.669 25.39 207.986 24.97C208.313 24.5407 208.476 23.9807 208.476 23.29C208.476 22.5527 208.294 21.9693 207.93 21.54C207.613 21.1667 207.211 20.98 206.726 20.98ZM211.817 19.58H213.749V20.994C213.992 19.9487 214.683 19.426 215.821 19.426C215.999 19.426 216.125 19.426 216.199 19.426L216.213 21.33C215.98 21.2833 215.737 21.26 215.485 21.26C214.851 21.26 214.412 21.3767 214.169 21.61C213.889 21.8713 213.749 22.3427 213.749 23.024V27H211.817V19.58ZM223.617 23.794H218.633C218.661 24.3913 218.754 24.816 218.913 25.068C219.184 25.4787 219.608 25.684 220.187 25.684C220.906 25.684 221.386 25.3853 221.629 24.788H223.533C223.318 25.516 222.898 26.0947 222.273 26.524C221.657 26.944 220.934 27.154 220.103 27.154C218.974 27.154 218.106 26.776 217.499 26.02C216.967 25.3573 216.701 24.4847 216.701 23.402C216.701 22.086 217.046 21.0687 217.737 20.35C218.344 19.734 219.142 19.426 220.131 19.426C220.887 19.426 221.55 19.6127 222.119 19.986C222.688 20.3593 223.094 20.882 223.337 21.554C223.533 22.0767 223.631 22.7067 223.631 23.444C223.631 23.5373 223.626 23.654 223.617 23.794ZM221.615 22.52C221.522 21.4373 221.022 20.896 220.117 20.896C219.268 20.896 218.782 21.4373 218.661 22.52H221.615Z" fill="#1C2024"/>
</g>
<g clip-path="url(#clip2_1563_53129)">
<mask id="path-5-inside-1_1563_53129" fill="white">
<path d="M0 44H256V88H0V44Z"/>
</mask>
<path d="M0 44H256V88H0V44Z" fill="white" fill-opacity="0.01"/>
<rect width="96" height="44" transform="translate(0 44)" fill="white" fill-opacity="0.01"/>
<path d="M19.882 70.51C19.182 70.93 18.3373 71.1447 17.348 71.154C15.7987 71.154 14.576 70.6173 13.68 69.544C12.9053 68.6107 12.518 67.4253 12.518 65.988C12.518 64.336 13.022 63.0293 14.03 62.068C14.898 61.2373 16.0087 60.822 17.362 60.822C18.9113 60.822 20.134 61.3587 21.03 62.432C21.8047 63.3653 22.192 64.5507 22.192 65.988C22.192 67.5467 21.7207 68.8253 20.778 69.824L20.652 69.95L21.898 71.182L21.24 71.798L19.882 70.51ZM19.784 69.096L19.826 69.054C20.554 68.326 20.918 67.304 20.918 65.988C20.918 64.6907 20.5493 63.6687 19.812 62.922C19.168 62.278 18.3467 61.956 17.348 61.956C16.2093 61.956 15.3087 62.3713 14.646 63.202C14.0767 63.93 13.792 64.8587 13.792 65.988C13.792 67.2853 14.1607 68.3073 14.898 69.054C15.542 69.698 16.3587 70.02 17.348 70.02C17.936 70.02 18.4773 69.8987 18.972 69.656H18.986L17.712 68.452L18.44 67.766L19.784 69.096ZM25.2394 66.688V71H23.9654V60.976H28.5714C29.6354 60.976 30.4287 61.2373 30.9514 61.76C31.4087 62.2173 31.6374 62.852 31.6374 63.664C31.6374 64.2333 31.5114 64.7047 31.2594 65.078C31.0167 65.4513 30.6107 65.778 30.0414 66.058C30.4987 66.2353 30.8347 66.4733 31.0494 66.772C31.2641 67.08 31.3854 67.71 31.4134 68.662C31.4321 69.362 31.4741 69.8333 31.5394 70.076C31.6141 70.3093 31.7727 70.51 32.0154 70.678V71H30.4754C30.2701 70.5707 30.1674 70.118 30.1674 69.642L30.1814 68.074C30.1814 67.9713 30.1394 67.8127 30.0554 67.598C29.9714 67.3833 29.8921 67.2293 29.8174 67.136C29.5654 66.8373 29.1361 66.688 28.5294 66.688H25.2394ZM25.2394 65.554H28.3334C29.6494 65.554 30.3074 64.98 30.3074 63.832C30.3074 62.684 29.6494 62.11 28.3334 62.11H25.2394V65.554ZM36.5932 67.318V68.326H33.1352V67.318H36.5932ZM42.5052 66.03C41.9639 66.7953 41.2592 67.178 40.3912 67.178C39.4486 67.178 38.7299 66.8373 38.2352 66.156C37.8339 65.6053 37.6332 64.9053 37.6332 64.056C37.6332 63.0293 37.9319 62.222 38.5292 61.634C39.0612 61.0927 39.7659 60.822 40.6432 60.822C41.9406 60.822 42.8179 61.41 43.2752 62.586C43.5646 63.2953 43.7092 64.308 43.7092 65.624C43.7092 69.292 42.4072 71.126 39.8032 71.126C39.5699 71.126 39.2666 71.1073 38.8932 71.07L38.4452 70.496V70.076C38.8186 70.132 39.1359 70.16 39.3972 70.16C40.5172 70.16 41.3059 69.8567 41.7632 69.25C42.2206 68.634 42.4679 67.5607 42.5052 66.03ZM40.6292 61.9C40.0226 61.9 39.5512 62.1567 39.2152 62.67C38.9632 63.0713 38.8372 63.552 38.8372 64.112C38.8372 64.7093 38.9959 65.204 39.3132 65.596C39.6306 65.9787 40.0319 66.17 40.5172 66.17C41.0772 66.17 41.5299 65.988 41.8752 65.624C42.2206 65.26 42.3932 64.7887 42.3932 64.21C42.3932 62.67 41.8052 61.9 40.6292 61.9ZM47.1493 65.89C45.9453 65.0873 45.3433 64.1587 45.3433 63.104C45.3433 62.3013 45.6326 61.6993 46.2113 61.298C46.6686 60.9713 47.2566 60.808 47.9753 60.808C48.8246 60.808 49.4873 61.0273 49.9633 61.466C50.4206 61.8767 50.6493 62.4413 50.6493 63.16C50.6493 63.7107 50.5233 64.1727 50.2713 64.546C50.0286 64.9193 49.562 65.3533 48.8713 65.848C50.374 66.5573 51.1253 67.5 51.1253 68.676C51.1253 69.5347 50.752 70.1927 50.0053 70.65C49.436 71.0047 48.7593 71.182 47.9753 71.182C47.042 71.182 46.286 70.9533 45.7073 70.496C45.138 70.048 44.8533 69.432 44.8533 68.648C44.8533 67.4813 45.6186 66.562 47.1493 65.89ZM48.0313 65.414C48.9833 64.8167 49.4593 64.0467 49.4593 63.104C49.4593 62.656 49.3286 62.3013 49.0673 62.04C48.806 61.7693 48.4513 61.634 48.0033 61.634C47.5086 61.634 47.1353 61.7833 46.8833 62.082C46.65 62.3433 46.5333 62.6887 46.5333 63.118C46.5333 63.5567 46.6453 63.958 46.8693 64.322C47.112 64.7327 47.4993 65.0967 48.0313 65.414ZM48.0173 66.24C47.3173 66.576 46.8226 66.9167 46.5333 67.262C46.2533 67.598 46.1133 68.0227 46.1133 68.536C46.1133 69.0587 46.2813 69.4693 46.6173 69.768C46.9533 70.0573 47.4153 70.202 48.0033 70.202C48.5913 70.202 49.0533 70.0527 49.3893 69.754C49.7346 69.4553 49.9073 69.054 49.9073 68.55C49.9073 68.0647 49.7626 67.6447 49.4733 67.29C49.184 66.9353 48.6986 66.5853 48.0173 66.24ZM55.7208 60.976V70.468L55.1188 71H54.5308V62.404L52.7948 63.86L52.1648 63.076L54.6568 60.976H55.7208ZM58.5414 65.988C59.1387 65.2133 59.8434 64.826 60.6554 64.826C61.598 64.826 62.3167 65.1667 62.8114 65.848C63.2034 66.3987 63.3994 67.094 63.3994 67.934C63.3994 68.9607 63.1054 69.7727 62.5174 70.37C61.976 70.902 61.2667 71.168 60.3894 71.168C58.4014 71.168 57.4074 69.8613 57.4074 67.248V66.716C57.4074 65.0173 57.7434 63.636 58.4154 62.572C59.134 61.424 60.17 60.85 61.5234 60.85C61.6914 60.85 61.8967 60.8593 62.1394 60.878L62.6154 61.466V61.9C62.242 61.844 61.934 61.816 61.6914 61.816C59.89 61.816 58.84 63.2067 58.5414 65.988ZM62.1954 67.878C62.1954 67.29 62.0367 66.8047 61.7194 66.422C61.4114 66.03 61.0147 65.834 60.5294 65.834C60.0067 65.834 59.526 66.0533 59.0874 66.492C58.7047 66.8747 58.5134 67.29 58.5134 67.738C58.5134 68.4287 58.6907 68.998 59.0454 69.446C59.3907 69.8753 59.848 70.09 60.4174 70.09C60.94 70.09 61.3647 69.8893 61.6914 69.488C62.0274 69.0773 62.1954 68.5407 62.1954 67.878Z" fill="#000713" fill-opacity="0.624"/>
<rect width="160" height="44" transform="translate(96 44)" fill="white" fill-opacity="0.01"/>
<path d="M108 59C108 57.3431 109.343 56 111 56H181C182.657 56 184 57.3431 184 59V73C184 74.6569 182.657 76 181 76H111C109.343 76 108 74.6569 108 73V59Z" fill="#02BA3C" fill-opacity="0.087"/>
<path d="M120.524 65.992C120.332 66.232 120.128 66.42 119.912 66.556C119.592 66.756 119.22 66.856 118.796 66.856C117.996 66.856 117.384 66.564 116.96 65.98C116.616 65.508 116.444 64.912 116.444 64.192C116.444 63.264 116.692 62.54 117.188 62.02C117.644 61.54 118.268 61.3 119.06 61.3C120.892 61.3 121.808 62.64 121.808 65.32C121.808 66.312 121.72 67.108 121.544 67.708C121.376 68.308 121.092 68.812 120.692 69.22C120.124 69.796 119.38 70.084 118.46 70.084C118.244 70.084 117.96 70.052 117.608 69.988L117.14 69.412V68.848C117.444 68.912 117.748 68.944 118.052 68.944C118.948 68.944 119.572 68.732 119.924 68.308C120.284 67.884 120.484 67.112 120.524 65.992ZM120.344 64.252C120.344 63.108 119.94 62.536 119.132 62.536C118.756 62.536 118.452 62.684 118.22 62.98C117.996 63.276 117.884 63.668 117.884 64.156C117.884 64.604 117.996 64.972 118.22 65.26C118.444 65.548 118.728 65.692 119.072 65.692C119.44 65.692 119.744 65.556 119.984 65.284C120.224 65.012 120.344 64.668 120.344 64.252ZM125.657 61.216C126.577 61.224 127.289 61.656 127.793 62.512C128.289 63.36 128.537 64.448 128.537 65.776C128.537 67.12 128.289 68.184 127.793 68.968C127.305 69.744 126.597 70.132 125.669 70.132C124.709 70.132 123.985 69.724 123.497 68.908C123.025 68.108 122.789 67.068 122.789 65.788C122.789 64.476 123.025 63.396 123.497 62.548C123.993 61.66 124.713 61.216 125.657 61.216ZM127.073 65.8C127.073 64.944 126.985 64.228 126.809 63.652C126.569 62.86 126.185 62.46 125.657 62.452C125.185 62.452 124.833 62.768 124.601 63.4C124.369 64.04 124.253 64.836 124.253 65.788C124.253 66.644 124.345 67.348 124.529 67.9C124.745 68.556 125.121 68.884 125.657 68.884C126.601 68.884 127.073 67.856 127.073 65.8ZM131.165 61.72C131.774 61.72 132.254 61.96 132.606 62.44C132.942 62.912 133.11 63.528 133.11 64.288C133.11 65.048 132.942 65.648 132.606 66.088C132.27 66.52 131.793 66.736 131.178 66.736C130.53 66.736 130.041 66.508 129.713 66.052C129.393 65.62 129.233 65.036 129.233 64.3C129.233 63.54 129.393 62.932 129.713 62.476C130.041 61.972 130.525 61.72 131.165 61.72ZM136.77 61.924L132.017 70H130.842L135.606 61.924H136.77ZM131.165 62.488C130.846 62.488 130.61 62.656 130.457 62.992C130.313 63.312 130.241 63.748 130.241 64.3C130.241 64.78 130.301 65.16 130.421 65.44C130.565 65.792 130.813 65.968 131.165 65.968C131.51 65.968 131.762 65.792 131.922 65.44C132.041 65.144 132.101 64.764 132.101 64.3C132.101 63.756 132.025 63.32 131.873 62.992C131.706 62.656 131.47 62.488 131.165 62.488ZM136.457 65.2C137.074 65.2 137.554 65.44 137.898 65.92C138.242 66.408 138.414 67.024 138.414 67.768C138.414 68.52 138.242 69.12 137.898 69.568C137.562 70 137.086 70.216 136.47 70.216C135.822 70.216 135.334 69.988 135.006 69.532C134.686 69.1 134.526 68.512 134.526 67.768C134.526 67.016 134.686 66.408 135.006 65.944C135.35 65.448 135.834 65.2 136.457 65.2ZM136.457 65.968C136.138 65.968 135.906 66.136 135.762 66.472C135.61 66.784 135.534 67.216 135.534 67.768C135.534 68.224 135.594 68.608 135.714 68.92C135.858 69.272 136.106 69.448 136.457 69.448C136.81 69.448 137.062 69.268 137.214 68.908C137.334 68.628 137.394 68.248 137.394 67.768C137.394 67.232 137.318 66.8 137.166 66.472C137.014 66.136 136.778 65.968 136.457 65.968ZM143.886 61.408L144.39 61.816C143.95 62.472 143.614 63.22 143.382 64.06C143.182 64.82 143.082 65.592 143.082 66.376C143.082 67.264 143.214 68.124 143.478 68.956C143.67 69.556 143.974 70.196 144.39 70.876L143.886 71.272H143.466C142.898 70.624 142.478 69.872 142.206 69.016C141.934 68.2 141.798 67.324 141.798 66.388C141.798 65.436 141.934 64.548 142.206 63.724C142.478 62.852 142.898 62.08 143.466 61.408H143.886ZM151.053 66.1H147.645V70H145.881V61.408H147.645V64.624H151.041V61.408H152.817V70H151.053V66.1ZM156.141 63.64V70H154.485V63.64H156.141ZM155.301 61.456C155.517 61.456 155.697 61.532 155.841 61.684C155.993 61.836 156.069 62.02 156.069 62.236C156.069 62.452 155.993 62.636 155.841 62.788C155.697 62.932 155.517 63.004 155.301 63.004C155.085 63.004 154.901 62.932 154.749 62.788C154.597 62.636 154.521 62.452 154.521 62.236C154.521 62.02 154.597 61.836 154.749 61.684C154.901 61.532 155.085 61.456 155.301 61.456ZM161.814 63.64H163.386V69.94C163.386 70.924 163.078 71.628 162.462 72.052C161.942 72.396 161.23 72.568 160.326 72.568C159.382 72.568 158.662 72.364 158.166 71.956C157.758 71.628 157.546 71.232 157.53 70.768H159.234C159.37 71.264 159.762 71.512 160.41 71.512C160.818 71.512 161.162 71.384 161.442 71.128C161.69 70.904 161.814 70.556 161.814 70.084V69.136C161.51 69.512 161.226 69.772 160.962 69.916C160.698 70.06 160.378 70.132 160.002 70.132C159.178 70.132 158.526 69.796 158.046 69.124C157.622 68.548 157.41 67.816 157.41 66.928C157.41 65.88 157.694 65.024 158.262 64.36C158.758 63.792 159.358 63.508 160.062 63.508C160.75 63.508 161.334 63.84 161.814 64.504V63.64ZM160.398 64.888C159.998 64.888 159.674 65.072 159.426 65.44C159.186 65.808 159.066 66.288 159.066 66.88C159.066 67.448 159.186 67.904 159.426 68.248C159.674 68.592 159.998 68.764 160.398 68.764C160.814 68.764 161.158 68.588 161.43 68.236C161.686 67.908 161.814 67.452 161.814 66.868C161.814 66.236 161.666 65.736 161.37 65.368C161.114 65.048 160.79 64.888 160.398 64.888ZM164.994 61.408H166.65V64.54C167.098 63.852 167.718 63.508 168.51 63.508C169.07 63.508 169.542 63.672 169.926 64C170.366 64.36 170.586 64.932 170.586 65.716V70H168.93V66.052C168.93 65.292 168.594 64.912 167.922 64.912C167.546 64.912 167.238 65.028 166.998 65.26C166.766 65.492 166.65 65.792 166.65 66.16V70H164.994V61.408ZM172.447 61.408H172.879C173.423 62.056 173.843 62.828 174.139 63.724C174.403 64.564 174.535 65.452 174.535 66.388C174.535 67.308 174.403 68.184 174.139 69.016C173.843 69.896 173.423 70.648 172.879 71.272H172.447L171.943 70.876C172.343 70.244 172.647 69.604 172.855 68.956C173.119 68.124 173.251 67.264 173.251 66.376C173.251 65.552 173.151 64.78 172.951 64.06C172.719 63.22 172.383 62.472 171.943 61.816L172.447 61.408Z" fill="#006B3B" fill-opacity="0.906"/>
</g>
<path d="M0 45H256V43H0V45Z" fill="#01012E" fill-opacity="0.134" mask="url(#path-5-inside-1_1563_53129)"/>
<g clip-path="url(#clip3_1563_53129)">
<mask id="path-10-inside-2_1563_53129" fill="white">
<path d="M0 88H256V132H0V88Z"/>
</mask>
<path d="M0 88H256V132H0V88Z" fill="white" fill-opacity="0.01"/>
<rect width="96" height="44" transform="translate(0 88)" fill="white" fill-opacity="0.01"/>
<path d="M19.882 114.51C19.182 114.93 18.3373 115.145 17.348 115.154C15.7987 115.154 14.576 114.617 13.68 113.544C12.9053 112.611 12.518 111.425 12.518 109.988C12.518 108.336 13.022 107.029 14.03 106.068C14.898 105.237 16.0087 104.822 17.362 104.822C18.9113 104.822 20.134 105.359 21.03 106.432C21.8047 107.365 22.192 108.551 22.192 109.988C22.192 111.547 21.7207 112.825 20.778 113.824L20.652 113.95L21.898 115.182L21.24 115.798L19.882 114.51ZM19.784 113.096L19.826 113.054C20.554 112.326 20.918 111.304 20.918 109.988C20.918 108.691 20.5493 107.669 19.812 106.922C19.168 106.278 18.3467 105.956 17.348 105.956C16.2093 105.956 15.3087 106.371 14.646 107.202C14.0767 107.93 13.792 108.859 13.792 109.988C13.792 111.285 14.1607 112.307 14.898 113.054C15.542 113.698 16.3587 114.02 17.348 114.02C17.936 114.02 18.4773 113.899 18.972 113.656H18.986L17.712 112.452L18.44 111.766L19.784 113.096ZM25.2394 110.688V115H23.9654V104.976H28.5714C29.6354 104.976 30.4287 105.237 30.9514 105.76C31.4087 106.217 31.6374 106.852 31.6374 107.664C31.6374 108.233 31.5114 108.705 31.2594 109.078C31.0167 109.451 30.6107 109.778 30.0414 110.058C30.4987 110.235 30.8347 110.473 31.0494 110.772C31.2641 111.08 31.3854 111.71 31.4134 112.662C31.4321 113.362 31.4741 113.833 31.5394 114.076C31.6141 114.309 31.7727 114.51 32.0154 114.678V115H30.4754C30.2701 114.571 30.1674 114.118 30.1674 113.642L30.1814 112.074C30.1814 111.971 30.1394 111.813 30.0554 111.598C29.9714 111.383 29.8921 111.229 29.8174 111.136C29.5654 110.837 29.1361 110.688 28.5294 110.688H25.2394ZM25.2394 109.554H28.3334C29.6494 109.554 30.3074 108.98 30.3074 107.832C30.3074 106.684 29.6494 106.11 28.3334 106.11H25.2394V109.554ZM36.5932 111.318V112.326H33.1352V111.318H36.5932ZM42.5052 110.03C41.9639 110.795 41.2592 111.178 40.3912 111.178C39.4486 111.178 38.7299 110.837 38.2352 110.156C37.8339 109.605 37.6332 108.905 37.6332 108.056C37.6332 107.029 37.9319 106.222 38.5292 105.634C39.0612 105.093 39.7659 104.822 40.6432 104.822C41.9406 104.822 42.8179 105.41 43.2752 106.586C43.5646 107.295 43.7092 108.308 43.7092 109.624C43.7092 113.292 42.4072 115.126 39.8032 115.126C39.5699 115.126 39.2666 115.107 38.8932 115.07L38.4452 114.496V114.076C38.8186 114.132 39.1359 114.16 39.3972 114.16C40.5172 114.16 41.3059 113.857 41.7632 113.25C42.2206 112.634 42.4679 111.561 42.5052 110.03ZM40.6292 105.9C40.0226 105.9 39.5512 106.157 39.2152 106.67C38.9632 107.071 38.8372 107.552 38.8372 108.112C38.8372 108.709 38.9959 109.204 39.3132 109.596C39.6306 109.979 40.0319 110.17 40.5172 110.17C41.0772 110.17 41.5299 109.988 41.8752 109.624C42.2206 109.26 42.3932 108.789 42.3932 108.21C42.3932 106.67 41.8052 105.9 40.6292 105.9ZM47.1493 109.89C45.9453 109.087 45.3433 108.159 45.3433 107.104C45.3433 106.301 45.6326 105.699 46.2113 105.298C46.6686 104.971 47.2566 104.808 47.9753 104.808C48.8246 104.808 49.4873 105.027 49.9633 105.466C50.4206 105.877 50.6493 106.441 50.6493 107.16C50.6493 107.711 50.5233 108.173 50.2713 108.546C50.0286 108.919 49.562 109.353 48.8713 109.848C50.374 110.557 51.1253 111.5 51.1253 112.676C51.1253 113.535 50.752 114.193 50.0053 114.65C49.436 115.005 48.7593 115.182 47.9753 115.182C47.042 115.182 46.286 114.953 45.7073 114.496C45.138 114.048 44.8533 113.432 44.8533 112.648C44.8533 111.481 45.6186 110.562 47.1493 109.89ZM48.0313 109.414C48.9833 108.817 49.4593 108.047 49.4593 107.104C49.4593 106.656 49.3286 106.301 49.0673 106.04C48.806 105.769 48.4513 105.634 48.0033 105.634C47.5086 105.634 47.1353 105.783 46.8833 106.082C46.65 106.343 46.5333 106.689 46.5333 107.118C46.5333 107.557 46.6453 107.958 46.8693 108.322C47.112 108.733 47.4993 109.097 48.0313 109.414ZM48.0173 110.24C47.3173 110.576 46.8226 110.917 46.5333 111.262C46.2533 111.598 46.1133 112.023 46.1133 112.536C46.1133 113.059 46.2813 113.469 46.6173 113.768C46.9533 114.057 47.4153 114.202 48.0033 114.202C48.5913 114.202 49.0533 114.053 49.3893 113.754C49.7346 113.455 49.9073 113.054 49.9073 112.55C49.9073 112.065 49.7626 111.645 49.4733 111.29C49.184 110.935 48.6986 110.585 48.0173 110.24ZM55.7208 104.976V114.468L55.1188 115H54.5308V106.404L52.7948 107.86L52.1648 107.076L54.6568 104.976H55.7208ZM63.2034 104.976V105.858L59.8714 114.342L59.0594 115H58.3314L61.9714 105.984H57.1134V104.976H63.2034Z" fill="#000713" fill-opacity="0.624"/>
<rect width="160" height="44" transform="translate(96 88)" fill="white" fill-opacity="0.01"/>
<path d="M108 103C108 101.343 109.343 100 111 100H180C181.657 100 183 101.343 183 103V117C183 118.657 181.657 120 180 120H111C109.343 120 108 118.657 108 117V103Z" fill="#02BA3C" fill-opacity="0.087"/>
<path d="M120.524 109.992C120.332 110.232 120.128 110.42 119.912 110.556C119.592 110.756 119.22 110.856 118.796 110.856C117.996 110.856 117.384 110.564 116.96 109.98C116.616 109.508 116.444 108.912 116.444 108.192C116.444 107.264 116.692 106.54 117.188 106.02C117.644 105.54 118.268 105.3 119.06 105.3C120.892 105.3 121.808 106.64 121.808 109.32C121.808 110.312 121.72 111.108 121.544 111.708C121.376 112.308 121.092 112.812 120.692 113.22C120.124 113.796 119.38 114.084 118.46 114.084C118.244 114.084 117.96 114.052 117.608 113.988L117.14 113.412V112.848C117.444 112.912 117.748 112.944 118.052 112.944C118.948 112.944 119.572 112.732 119.924 112.308C120.284 111.884 120.484 111.112 120.524 109.992ZM120.344 108.252C120.344 107.108 119.94 106.536 119.132 106.536C118.756 106.536 118.452 106.684 118.22 106.98C117.996 107.276 117.884 107.668 117.884 108.156C117.884 108.604 117.996 108.972 118.22 109.26C118.444 109.548 118.728 109.692 119.072 109.692C119.44 109.692 119.744 109.556 119.984 109.284C120.224 109.012 120.344 108.668 120.344 108.252ZM126.653 105.408V106.632H124.013L123.893 108.78C124.157 108.74 124.373 108.72 124.541 108.72C125.453 108.72 126.157 109.008 126.653 109.584C127.077 110.08 127.289 110.732 127.289 111.54C127.289 112.404 126.965 113.068 126.317 113.532C125.797 113.9 125.141 114.084 124.349 114.084C123.829 114.084 123.317 114.02 122.813 113.892L122.345 113.328V112.764C122.897 112.876 123.377 112.932 123.785 112.932C124.497 112.932 125.001 112.836 125.297 112.644C125.649 112.42 125.825 112.028 125.825 111.468C125.825 110.9 125.677 110.492 125.381 110.244C125.085 109.996 124.601 109.872 123.929 109.872C123.649 109.872 123.209 109.904 122.609 109.968C122.529 109.976 122.461 109.984 122.405 109.992L122.657 105.408H126.653ZM129.923 105.72C130.531 105.72 131.011 105.96 131.363 106.44C131.699 106.912 131.867 107.528 131.867 108.288C131.867 109.048 131.699 109.648 131.363 110.088C131.027 110.52 130.551 110.736 129.935 110.736C129.287 110.736 128.799 110.508 128.471 110.052C128.151 109.62 127.991 109.036 127.991 108.3C127.991 107.54 128.151 106.932 128.471 106.476C128.799 105.972 129.283 105.72 129.923 105.72ZM135.527 105.924L130.775 114H129.599L134.363 105.924H135.527ZM129.923 106.488C129.603 106.488 129.367 106.656 129.215 106.992C129.071 107.312 128.999 107.748 128.999 108.3C128.999 108.78 129.059 109.16 129.179 109.44C129.323 109.792 129.571 109.968 129.923 109.968C130.267 109.968 130.519 109.792 130.679 109.44C130.799 109.144 130.859 108.764 130.859 108.3C130.859 107.756 130.783 107.32 130.631 106.992C130.463 106.656 130.227 106.488 129.923 106.488ZM135.215 109.2C135.831 109.2 136.311 109.44 136.655 109.92C136.999 110.408 137.171 111.024 137.171 111.768C137.171 112.52 136.999 113.12 136.655 113.568C136.319 114 135.843 114.216 135.227 114.216C134.579 114.216 134.091 113.988 133.763 113.532C133.443 113.1 133.283 112.512 133.283 111.768C133.283 111.016 133.443 110.408 133.763 109.944C134.107 109.448 134.591 109.2 135.215 109.2ZM135.215 109.968C134.895 109.968 134.663 110.136 134.519 110.472C134.367 110.784 134.291 111.216 134.291 111.768C134.291 112.224 134.351 112.608 134.471 112.92C134.615 113.272 134.863 113.448 135.215 113.448C135.567 113.448 135.819 113.268 135.971 112.908C136.091 112.628 136.151 112.248 136.151 111.768C136.151 111.232 136.075 110.8 135.923 110.472C135.771 110.136 135.535 109.968 135.215 109.968ZM142.644 105.408L143.148 105.816C142.708 106.472 142.372 107.22 142.14 108.06C141.94 108.82 141.84 109.592 141.84 110.376C141.84 111.264 141.972 112.124 142.236 112.956C142.428 113.556 142.732 114.196 143.148 114.876L142.644 115.272H142.224C141.656 114.624 141.236 113.872 140.964 113.016C140.692 112.2 140.556 111.324 140.556 110.388C140.556 109.436 140.692 108.548 140.964 107.724C141.236 106.852 141.656 106.08 142.224 105.408H142.644ZM149.811 110.1H146.403V114H144.639V105.408H146.403V108.624H149.799V105.408H151.575V114H149.811V110.1ZM154.898 107.64V114H153.242V107.64H154.898ZM154.058 105.456C154.274 105.456 154.454 105.532 154.598 105.684C154.75 105.836 154.826 106.02 154.826 106.236C154.826 106.452 154.75 106.636 154.598 106.788C154.454 106.932 154.274 107.004 154.058 107.004C153.842 107.004 153.658 106.932 153.506 106.788C153.354 106.636 153.278 106.452 153.278 106.236C153.278 106.02 153.354 105.836 153.506 105.684C153.658 105.532 153.842 105.456 154.058 105.456ZM160.572 107.64H162.144V113.94C162.144 114.924 161.836 115.628 161.22 116.052C160.7 116.396 159.988 116.568 159.084 116.568C158.14 116.568 157.42 116.364 156.924 115.956C156.516 115.628 156.304 115.232 156.288 114.768H157.992C158.128 115.264 158.52 115.512 159.168 115.512C159.576 115.512 159.92 115.384 160.2 115.128C160.448 114.904 160.572 114.556 160.572 114.084V113.136C160.268 113.512 159.984 113.772 159.72 113.916C159.456 114.06 159.136 114.132 158.76 114.132C157.936 114.132 157.284 113.796 156.804 113.124C156.38 112.548 156.168 111.816 156.168 110.928C156.168 109.88 156.452 109.024 157.02 108.36C157.516 107.792 158.116 107.508 158.82 107.508C159.508 107.508 160.092 107.84 160.572 108.504V107.64ZM159.156 108.888C158.756 108.888 158.432 109.072 158.184 109.44C157.944 109.808 157.824 110.288 157.824 110.88C157.824 111.448 157.944 111.904 158.184 112.248C158.432 112.592 158.756 112.764 159.156 112.764C159.572 112.764 159.916 112.588 160.188 112.236C160.444 111.908 160.572 111.452 160.572 110.868C160.572 110.236 160.424 109.736 160.128 109.368C159.872 109.048 159.548 108.888 159.156 108.888ZM163.751 105.408H165.407V108.54C165.855 107.852 166.475 107.508 167.267 107.508C167.827 107.508 168.299 107.672 168.683 108C169.123 108.36 169.343 108.932 169.343 109.716V114H167.687V110.052C167.687 109.292 167.351 108.912 166.679 108.912C166.303 108.912 165.995 109.028 165.755 109.26C165.523 109.492 165.407 109.792 165.407 110.16V114H163.751V105.408ZM171.205 105.408H171.637C172.181 106.056 172.601 106.828 172.897 107.724C173.161 108.564 173.293 109.452 173.293 110.388C173.293 111.308 173.161 112.184 172.897 113.016C172.601 113.896 172.181 114.648 171.637 115.272H171.205L170.701 114.876C171.101 114.244 171.405 113.604 171.613 112.956C171.877 112.124 172.009 111.264 172.009 110.376C172.009 109.552 171.909 108.78 171.709 108.06C171.477 107.22 171.141 106.472 170.701 105.816L171.205 105.408Z" fill="#006B3B" fill-opacity="0.906"/>
</g>
<path d="M0 89H256V87H0V89Z" fill="#01012E" fill-opacity="0.134" mask="url(#path-10-inside-2_1563_53129)"/>
<g clip-path="url(#clip4_1563_53129)">
<mask id="path-15-inside-3_1563_53129" fill="white">
<path d="M0 132H256V176H0V132Z"/>
</mask>
<path d="M0 132H256V176H0V132Z" fill="white" fill-opacity="0.01"/>
<rect width="96" height="44" transform="translate(0 132)" fill="white" fill-opacity="0.01"/>
<path d="M19.882 158.51C19.182 158.93 18.3373 159.145 17.348 159.154C15.7987 159.154 14.576 158.617 13.68 157.544C12.9053 156.611 12.518 155.425 12.518 153.988C12.518 152.336 13.022 151.029 14.03 150.068C14.898 149.237 16.0087 148.822 17.362 148.822C18.9113 148.822 20.134 149.359 21.03 150.432C21.8047 151.365 22.192 152.551 22.192 153.988C22.192 155.547 21.7207 156.825 20.778 157.824L20.652 157.95L21.898 159.182L21.24 159.798L19.882 158.51ZM19.784 157.096L19.826 157.054C20.554 156.326 20.918 155.304 20.918 153.988C20.918 152.691 20.5493 151.669 19.812 150.922C19.168 150.278 18.3467 149.956 17.348 149.956C16.2093 149.956 15.3087 150.371 14.646 151.202C14.0767 151.93 13.792 152.859 13.792 153.988C13.792 155.285 14.1607 156.307 14.898 157.054C15.542 157.698 16.3587 158.02 17.348 158.02C17.936 158.02 18.4773 157.899 18.972 157.656H18.986L17.712 156.452L18.44 155.766L19.784 157.096ZM25.2394 154.688V159H23.9654V148.976H28.5714C29.6354 148.976 30.4287 149.237 30.9514 149.76C31.4087 150.217 31.6374 150.852 31.6374 151.664C31.6374 152.233 31.5114 152.705 31.2594 153.078C31.0167 153.451 30.6107 153.778 30.0414 154.058C30.4987 154.235 30.8347 154.473 31.0494 154.772C31.2641 155.08 31.3854 155.71 31.4134 156.662C31.4321 157.362 31.4741 157.833 31.5394 158.076C31.6141 158.309 31.7727 158.51 32.0154 158.678V159H30.4754C30.2701 158.571 30.1674 158.118 30.1674 157.642L30.1814 156.074C30.1814 155.971 30.1394 155.813 30.0554 155.598C29.9714 155.383 29.8921 155.229 29.8174 155.136C29.5654 154.837 29.1361 154.688 28.5294 154.688H25.2394ZM25.2394 153.554H28.3334C29.6494 153.554 30.3074 152.98 30.3074 151.832C30.3074 150.684 29.6494 150.11 28.3334 150.11H25.2394V153.554ZM36.5932 155.318V156.326H33.1352V155.318H36.5932ZM42.5052 154.03C41.9639 154.795 41.2592 155.178 40.3912 155.178C39.4486 155.178 38.7299 154.837 38.2352 154.156C37.8339 153.605 37.6332 152.905 37.6332 152.056C37.6332 151.029 37.9319 150.222 38.5292 149.634C39.0612 149.093 39.7659 148.822 40.6432 148.822C41.9406 148.822 42.8179 149.41 43.2752 150.586C43.5646 151.295 43.7092 152.308 43.7092 153.624C43.7092 157.292 42.4072 159.126 39.8032 159.126C39.5699 159.126 39.2666 159.107 38.8932 159.07L38.4452 158.496V158.076C38.8186 158.132 39.1359 158.16 39.3972 158.16C40.5172 158.16 41.3059 157.857 41.7632 157.25C42.2206 156.634 42.4679 155.561 42.5052 154.03ZM40.6292 149.9C40.0226 149.9 39.5512 150.157 39.2152 150.67C38.9632 151.071 38.8372 151.552 38.8372 152.112C38.8372 152.709 38.9959 153.204 39.3132 153.596C39.6306 153.979 40.0319 154.17 40.5172 154.17C41.0772 154.17 41.5299 153.988 41.8752 153.624C42.2206 153.26 42.3932 152.789 42.3932 152.21C42.3932 150.67 41.8052 149.9 40.6292 149.9ZM47.1493 153.89C45.9453 153.087 45.3433 152.159 45.3433 151.104C45.3433 150.301 45.6326 149.699 46.2113 149.298C46.6686 148.971 47.2566 148.808 47.9753 148.808C48.8246 148.808 49.4873 149.027 49.9633 149.466C50.4206 149.877 50.6493 150.441 50.6493 151.16C50.6493 151.711 50.5233 152.173 50.2713 152.546C50.0286 152.919 49.562 153.353 48.8713 153.848C50.374 154.557 51.1253 155.5 51.1253 156.676C51.1253 157.535 50.752 158.193 50.0053 158.65C49.436 159.005 48.7593 159.182 47.9753 159.182C47.042 159.182 46.286 158.953 45.7073 158.496C45.138 158.048 44.8533 157.432 44.8533 156.648C44.8533 155.481 45.6186 154.562 47.1493 153.89ZM48.0313 153.414C48.9833 152.817 49.4593 152.047 49.4593 151.104C49.4593 150.656 49.3286 150.301 49.0673 150.04C48.806 149.769 48.4513 149.634 48.0033 149.634C47.5086 149.634 47.1353 149.783 46.8833 150.082C46.65 150.343 46.5333 150.689 46.5333 151.118C46.5333 151.557 46.6453 151.958 46.8693 152.322C47.112 152.733 47.4993 153.097 48.0313 153.414ZM48.0173 154.24C47.3173 154.576 46.8226 154.917 46.5333 155.262C46.2533 155.598 46.1133 156.023 46.1133 156.536C46.1133 157.059 46.2813 157.469 46.6173 157.768C46.9533 158.057 47.4153 158.202 48.0033 158.202C48.5913 158.202 49.0533 158.053 49.3893 157.754C49.7346 157.455 49.9073 157.054 49.9073 156.55C49.9073 156.065 49.7626 155.645 49.4733 155.29C49.184 154.935 48.6986 154.585 48.0173 154.24ZM55.7208 148.976V158.468L55.1188 159H54.5308V150.404L52.7948 151.86L52.1648 151.076L54.6568 148.976H55.7208ZM59.5634 153.89C58.3594 153.087 57.7574 152.159 57.7574 151.104C57.7574 150.301 58.0467 149.699 58.6254 149.298C59.0827 148.971 59.6707 148.808 60.3894 148.808C61.2387 148.808 61.9014 149.027 62.3774 149.466C62.8347 149.877 63.0634 150.441 63.0634 151.16C63.0634 151.711 62.9374 152.173 62.6854 152.546C62.4427 152.919 61.976 153.353 61.2854 153.848C62.788 154.557 63.5394 155.5 63.5394 156.676C63.5394 157.535 63.166 158.193 62.4194 158.65C61.85 159.005 61.1734 159.182 60.3894 159.182C59.456 159.182 58.7 158.953 58.1214 158.496C57.552 158.048 57.2674 157.432 57.2674 156.648C57.2674 155.481 58.0327 154.562 59.5634 153.89ZM60.4454 153.414C61.3974 152.817 61.8734 152.047 61.8734 151.104C61.8734 150.656 61.7427 150.301 61.4814 150.04C61.22 149.769 60.8654 149.634 60.4174 149.634C59.9227 149.634 59.5494 149.783 59.2974 150.082C59.064 150.343 58.9474 150.689 58.9474 151.118C58.9474 151.557 59.0594 151.958 59.2834 152.322C59.526 152.733 59.9134 153.097 60.4454 153.414ZM60.4314 154.24C59.7314 154.576 59.2367 154.917 58.9474 155.262C58.6674 155.598 58.5274 156.023 58.5274 156.536C58.5274 157.059 58.6954 157.469 59.0314 157.768C59.3674 158.057 59.8294 158.202 60.4174 158.202C61.0054 158.202 61.4674 158.053 61.8034 157.754C62.1487 157.455 62.3214 157.054 62.3214 156.55C62.3214 156.065 62.1767 155.645 61.8874 155.29C61.598 154.935 61.1127 154.585 60.4314 154.24Z" fill="#000713" fill-opacity="0.624"/>
<rect width="160" height="44" transform="translate(96 132)" fill="white" fill-opacity="0.01"/>
<path d="M108 147C108 145.343 109.343 144 111 144H200C201.657 144 203 145.343 203 147V161C203 162.657 201.657 164 200 164H111C109.343 164 108 162.657 108 161V147Z" fill="#FFE0A1"/>
<path d="M118.352 153.572C117.352 152.972 116.852 152.22 116.852 151.316C116.852 150.58 117.128 150.032 117.68 149.672C118.104 149.392 118.648 149.252 119.312 149.252C120.048 149.252 120.64 149.448 121.088 149.84C121.52 150.216 121.736 150.712 121.736 151.328C121.736 152.184 121.232 152.928 120.224 153.56C120.824 153.856 121.256 154.148 121.52 154.436C121.888 154.844 122.072 155.332 122.072 155.9C122.072 156.516 121.848 157.028 121.4 157.436C120.872 157.916 120.164 158.156 119.276 158.156C118.452 158.156 117.78 157.944 117.26 157.52C116.756 157.112 116.504 156.564 116.504 155.876C116.504 154.988 117.12 154.22 118.352 153.572ZM119.336 152.996C119.96 152.572 120.272 152.008 120.272 151.304C120.272 150.632 119.948 150.296 119.3 150.296C119.004 150.304 118.768 150.392 118.592 150.56C118.408 150.752 118.316 151.008 118.316 151.328C118.316 151.64 118.396 151.936 118.556 152.216C118.716 152.504 118.976 152.764 119.336 152.996ZM119.3 154.088C118.812 154.344 118.468 154.596 118.268 154.844C118.076 155.092 117.98 155.4 117.98 155.768C117.98 156.576 118.42 156.98 119.3 156.98C120.196 156.98 120.644 156.58 120.644 155.78C120.644 155.116 120.196 154.552 119.3 154.088ZM125.915 149.216C126.835 149.224 127.547 149.656 128.051 150.512C128.547 151.36 128.795 152.448 128.795 153.776C128.795 155.12 128.547 156.184 128.051 156.968C127.563 157.744 126.855 158.132 125.927 158.132C124.967 158.132 124.243 157.724 123.754 156.908C123.282 156.108 123.046 155.068 123.046 153.788C123.046 152.476 123.282 151.396 123.754 150.548C124.251 149.66 124.971 149.216 125.915 149.216ZM127.331 153.8C127.331 152.944 127.243 152.228 127.067 151.652C126.827 150.86 126.443 150.46 125.915 150.452C125.443 150.452 125.091 150.768 124.859 151.4C124.627 152.04 124.511 152.836 124.511 153.788C124.511 154.644 124.603 155.348 124.787 155.9C125.003 156.556 125.379 156.884 125.915 156.884C126.859 156.884 127.331 155.856 127.331 153.8ZM131.423 149.72C132.031 149.72 132.511 149.96 132.863 150.44C133.199 150.912 133.367 151.528 133.367 152.288C133.367 153.048 133.199 153.648 132.863 154.088C132.527 154.52 132.051 154.736 131.435 154.736C130.787 154.736 130.299 154.508 129.971 154.052C129.651 153.62 129.491 153.036 129.491 152.3C129.491 151.54 129.651 150.932 129.971 150.476C130.299 149.972 130.783 149.72 131.423 149.72ZM137.027 149.924L132.275 158H131.099L135.863 149.924H137.027ZM131.423 150.488C131.103 150.488 130.867 150.656 130.715 150.992C130.571 151.312 130.499 151.748 130.499 152.3C130.499 152.78 130.559 153.16 130.679 153.44C130.823 153.792 131.071 153.968 131.423 153.968C131.767 153.968 132.019 153.792 132.179 153.44C132.299 153.144 132.359 152.764 132.359 152.3C132.359 151.756 132.283 151.32 132.131 150.992C131.963 150.656 131.727 150.488 131.423 150.488ZM136.715 153.2C137.331 153.2 137.811 153.44 138.155 153.92C138.499 154.408 138.671 155.024 138.671 155.768C138.671 156.52 138.499 157.12 138.155 157.568C137.819 158 137.343 158.216 136.727 158.216C136.079 158.216 135.591 157.988 135.263 157.532C134.943 157.1 134.783 156.512 134.783 155.768C134.783 155.016 134.943 154.408 135.263 153.944C135.607 153.448 136.091 153.2 136.715 153.2ZM136.715 153.968C136.395 153.968 136.163 154.136 136.019 154.472C135.867 154.784 135.791 155.216 135.791 155.768C135.791 156.224 135.851 156.608 135.971 156.92C136.115 157.272 136.363 157.448 136.715 157.448C137.067 157.448 137.319 157.268 137.471 156.908C137.591 156.628 137.651 156.248 137.651 155.768C137.651 155.232 137.575 154.8 137.423 154.472C137.271 154.136 137.035 153.968 136.715 153.968ZM144.144 149.408L144.648 149.816C144.208 150.472 143.872 151.22 143.64 152.06C143.44 152.82 143.34 153.592 143.34 154.376C143.34 155.264 143.472 156.124 143.736 156.956C143.928 157.556 144.232 158.196 144.648 158.876L144.144 159.272H143.724C143.156 158.624 142.736 157.872 142.464 157.016C142.192 156.2 142.056 155.324 142.056 154.388C142.056 153.436 142.192 152.548 142.464 151.724C142.736 150.852 143.156 150.08 143.724 149.408H144.144ZM147.903 151.316V158H146.139V149.408H148.779L150.339 156.248L151.839 149.408H154.503V158H152.739V151.316L151.215 158H149.451L147.903 151.316ZM161.68 155.252H157.408C157.432 155.764 157.512 156.128 157.648 156.344C157.88 156.696 158.244 156.872 158.74 156.872C159.356 156.872 159.768 156.616 159.976 156.104H161.608C161.424 156.728 161.064 157.224 160.528 157.592C160 157.952 159.38 158.132 158.668 158.132C157.7 158.132 156.956 157.808 156.436 157.16C155.98 156.592 155.752 155.844 155.752 154.916C155.752 153.788 156.048 152.916 156.64 152.3C157.16 151.772 157.844 151.508 158.692 151.508C159.34 151.508 159.908 151.668 160.396 151.988C160.884 152.308 161.232 152.756 161.44 153.332C161.608 153.78 161.692 154.32 161.692 154.952C161.692 155.032 161.688 155.132 161.68 155.252ZM159.964 154.16C159.884 153.232 159.456 152.768 158.68 152.768C157.952 152.768 157.536 153.232 157.432 154.16H159.964ZM168.579 149.408V158H166.923V157.292C166.539 157.852 165.959 158.132 165.183 158.132C164.343 158.132 163.667 157.78 163.155 157.076C162.715 156.476 162.495 155.728 162.495 154.832C162.495 153.768 162.775 152.928 163.335 152.312C163.823 151.776 164.435 151.508 165.171 151.508C165.947 151.508 166.531 151.804 166.923 152.396V149.408H168.579ZM165.543 152.864C165.127 152.864 164.791 153.044 164.535 153.404C164.279 153.764 164.151 154.236 164.151 154.82C164.151 155.396 164.275 155.864 164.523 156.224C164.779 156.576 165.119 156.752 165.543 156.752C165.967 156.752 166.303 156.576 166.551 156.224C166.807 155.872 166.935 155.404 166.935 154.82C166.935 154.228 166.807 153.756 166.551 153.404C166.295 153.044 165.959 152.864 165.543 152.864ZM171.853 151.64V158H170.197V151.64H171.853ZM171.013 149.456C171.229 149.456 171.409 149.532 171.553 149.684C171.705 149.836 171.781 150.02 171.781 150.236C171.781 150.452 171.705 150.636 171.553 150.788C171.409 150.932 171.229 151.004 171.013 151.004C170.797 151.004 170.613 150.932 170.461 150.788C170.309 150.636 170.233 150.452 170.233 150.236C170.233 150.02 170.309 149.836 170.461 149.684C170.613 149.532 170.797 149.456 171.013 149.456ZM179.123 158H177.479V157.1C177.031 157.788 176.395 158.132 175.571 158.132C174.843 158.132 174.291 157.916 173.915 157.484C173.595 157.108 173.435 156.592 173.435 155.936V151.64H175.091V155.588C175.091 156.348 175.443 156.728 176.147 156.728C176.547 156.728 176.867 156.616 177.107 156.392C177.355 156.168 177.479 155.864 177.479 155.48V151.64H179.123V158ZM180.73 151.64H182.374V152.408C182.862 151.808 183.442 151.508 184.114 151.508C184.938 151.508 185.514 151.82 185.842 152.444C186.322 151.82 186.942 151.508 187.702 151.508C188.342 151.508 188.838 151.684 189.19 152.036C189.55 152.38 189.73 152.86 189.73 153.476V158H188.086V153.74C188.086 153.188 187.786 152.912 187.186 152.912C186.834 152.912 186.558 153.024 186.358 153.248C186.158 153.464 186.058 153.768 186.058 154.16V158H184.402V153.74C184.402 153.188 184.106 152.912 183.514 152.912C183.162 152.912 182.886 153.024 182.686 153.248C182.486 153.464 182.386 153.768 182.386 154.16V158H180.73V151.64ZM191.605 149.408H192.037C192.581 150.056 193.001 150.828 193.297 151.724C193.561 152.564 193.693 153.452 193.693 154.388C193.693 155.308 193.561 156.184 193.297 157.016C193.001 157.896 192.581 158.648 192.037 159.272H191.605L191.101 158.876C191.501 158.244 191.805 157.604 192.013 156.956C192.277 156.124 192.409 155.264 192.409 154.376C192.409 153.552 192.309 152.78 192.109 152.06C191.877 151.22 191.541 150.472 191.101 149.816L191.605 149.408Z" fill="#915930"/>
</g>
<path d="M0 133H256V131H0V133Z" fill="#01012E" fill-opacity="0.134" mask="url(#path-15-inside-3_1563_53129)"/>
<g clip-path="url(#clip5_1563_53129)">
<mask id="path-20-inside-4_1563_53129" fill="white">
<path d="M0 176H256V220H0V176Z"/>
</mask>
<path d="M0 176H256V220H0V176Z" fill="white" fill-opacity="0.01"/>
<rect width="96" height="44" transform="translate(0 176)" fill="white" fill-opacity="0.01"/>
<path d="M19.882 202.51C19.182 202.93 18.3373 203.145 17.348 203.154C15.7987 203.154 14.576 202.617 13.68 201.544C12.9053 200.611 12.518 199.425 12.518 197.988C12.518 196.336 13.022 195.029 14.03 194.068C14.898 193.237 16.0087 192.822 17.362 192.822C18.9113 192.822 20.134 193.359 21.03 194.432C21.8047 195.365 22.192 196.551 22.192 197.988C22.192 199.547 21.7207 200.825 20.778 201.824L20.652 201.95L21.898 203.182L21.24 203.798L19.882 202.51ZM19.784 201.096L19.826 201.054C20.554 200.326 20.918 199.304 20.918 197.988C20.918 196.691 20.5493 195.669 19.812 194.922C19.168 194.278 18.3467 193.956 17.348 193.956C16.2093 193.956 15.3087 194.371 14.646 195.202C14.0767 195.93 13.792 196.859 13.792 197.988C13.792 199.285 14.1607 200.307 14.898 201.054C15.542 201.698 16.3587 202.02 17.348 202.02C17.936 202.02 18.4773 201.899 18.972 201.656H18.986L17.712 200.452L18.44 199.766L19.784 201.096ZM25.2394 198.688V203H23.9654V192.976H28.5714C29.6354 192.976 30.4287 193.237 30.9514 193.76C31.4087 194.217 31.6374 194.852 31.6374 195.664C31.6374 196.233 31.5114 196.705 31.2594 197.078C31.0167 197.451 30.6107 197.778 30.0414 198.058C30.4987 198.235 30.8347 198.473 31.0494 198.772C31.2641 199.08 31.3854 199.71 31.4134 200.662C31.4321 201.362 31.4741 201.833 31.5394 202.076C31.6141 202.309 31.7727 202.51 32.0154 202.678V203H30.4754C30.2701 202.571 30.1674 202.118 30.1674 201.642L30.1814 200.074C30.1814 199.971 30.1394 199.813 30.0554 199.598C29.9714 199.383 29.8921 199.229 29.8174 199.136C29.5654 198.837 29.1361 198.688 28.5294 198.688H25.2394ZM25.2394 197.554H28.3334C29.6494 197.554 30.3074 196.98 30.3074 195.832C30.3074 194.684 29.6494 194.11 28.3334 194.11H25.2394V197.554ZM36.5932 199.318V200.326H33.1352V199.318H36.5932ZM42.5052 198.03C41.9639 198.795 41.2592 199.178 40.3912 199.178C39.4486 199.178 38.7299 198.837 38.2352 198.156C37.8339 197.605 37.6332 196.905 37.6332 196.056C37.6332 195.029 37.9319 194.222 38.5292 193.634C39.0612 193.093 39.7659 192.822 40.6432 192.822C41.9406 192.822 42.8179 193.41 43.2752 194.586C43.5646 195.295 43.7092 196.308 43.7092 197.624C43.7092 201.292 42.4072 203.126 39.8032 203.126C39.5699 203.126 39.2666 203.107 38.8932 203.07L38.4452 202.496V202.076C38.8186 202.132 39.1359 202.16 39.3972 202.16C40.5172 202.16 41.3059 201.857 41.7632 201.25C42.2206 200.634 42.4679 199.561 42.5052 198.03ZM40.6292 193.9C40.0226 193.9 39.5512 194.157 39.2152 194.67C38.9632 195.071 38.8372 195.552 38.8372 196.112C38.8372 196.709 38.9959 197.204 39.3132 197.596C39.6306 197.979 40.0319 198.17 40.5172 198.17C41.0772 198.17 41.5299 197.988 41.8752 197.624C42.2206 197.26 42.3932 196.789 42.3932 196.21C42.3932 194.67 41.8052 193.9 40.6292 193.9ZM47.1493 197.89C45.9453 197.087 45.3433 196.159 45.3433 195.104C45.3433 194.301 45.6326 193.699 46.2113 193.298C46.6686 192.971 47.2566 192.808 47.9753 192.808C48.8246 192.808 49.4873 193.027 49.9633 193.466C50.4206 193.877 50.6493 194.441 50.6493 195.16C50.6493 195.711 50.5233 196.173 50.2713 196.546C50.0286 196.919 49.562 197.353 48.8713 197.848C50.374 198.557 51.1253 199.5 51.1253 200.676C51.1253 201.535 50.752 202.193 50.0053 202.65C49.436 203.005 48.7593 203.182 47.9753 203.182C47.042 203.182 46.286 202.953 45.7073 202.496C45.138 202.048 44.8533 201.432 44.8533 200.648C44.8533 199.481 45.6186 198.562 47.1493 197.89ZM48.0313 197.414C48.9833 196.817 49.4593 196.047 49.4593 195.104C49.4593 194.656 49.3286 194.301 49.0673 194.04C48.806 193.769 48.4513 193.634 48.0033 193.634C47.5086 193.634 47.1353 193.783 46.8833 194.082C46.65 194.343 46.5333 194.689 46.5333 195.118C46.5333 195.557 46.6453 195.958 46.8693 196.322C47.112 196.733 47.4993 197.097 48.0313 197.414ZM48.0173 198.24C47.3173 198.576 46.8226 198.917 46.5333 199.262C46.2533 199.598 46.1133 200.023 46.1133 200.536C46.1133 201.059 46.2813 201.469 46.6173 201.768C46.9533 202.057 47.4153 202.202 48.0033 202.202C48.5913 202.202 49.0533 202.053 49.3893 201.754C49.7346 201.455 49.9073 201.054 49.9073 200.55C49.9073 200.065 49.7626 199.645 49.4733 199.29C49.184 198.935 48.6986 198.585 48.0173 198.24ZM55.7208 192.976V202.468L55.1188 203H54.5308V194.404L52.7948 195.86L52.1648 195.076L54.6568 192.976H55.7208ZM62.0834 198.03C61.542 198.795 60.8374 199.178 59.9694 199.178C59.0267 199.178 58.308 198.837 57.8134 198.156C57.412 197.605 57.2114 196.905 57.2114 196.056C57.2114 195.029 57.51 194.222 58.1074 193.634C58.6394 193.093 59.344 192.822 60.2214 192.822C61.5187 192.822 62.396 193.41 62.8534 194.586C63.1427 195.295 63.2874 196.308 63.2874 197.624C63.2874 201.292 61.9854 203.126 59.3814 203.126C59.148 203.126 58.8447 203.107 58.4714 203.07L58.0234 202.496V202.076C58.3967 202.132 58.714 202.16 58.9754 202.16C60.0954 202.16 60.884 201.857 61.3414 201.25C61.7987 200.634 62.046 199.561 62.0834 198.03ZM60.2074 193.9C59.6007 193.9 59.1294 194.157 58.7934 194.67C58.5414 195.071 58.4154 195.552 58.4154 196.112C58.4154 196.709 58.574 197.204 58.8914 197.596C59.2087 197.979 59.61 198.17 60.0954 198.17C60.6554 198.17 61.108 197.988 61.4534 197.624C61.7987 197.26 61.9714 196.789 61.9714 196.21C61.9714 194.67 61.3834 193.9 60.2074 193.9Z" fill="#000713" fill-opacity="0.624"/>
<rect width="160" height="44" transform="translate(96 176)" fill="white" fill-opacity="0.01"/>
<path d="M108 191C108 189.343 109.343 188 111 188H180C181.657 188 183 189.343 183 191V205C183 206.657 181.657 208 180 208H111C109.343 208 108 206.657 108 205V191Z" fill="#02BA3C" fill-opacity="0.087"/>
<path d="M120.524 197.992C120.332 198.232 120.128 198.42 119.912 198.556C119.592 198.756 119.22 198.856 118.796 198.856C117.996 198.856 117.384 198.564 116.96 197.98C116.616 197.508 116.444 196.912 116.444 196.192C116.444 195.264 116.692 194.54 117.188 194.02C117.644 193.54 118.268 193.3 119.06 193.3C120.892 193.3 121.808 194.64 121.808 197.32C121.808 198.312 121.72 199.108 121.544 199.708C121.376 200.308 121.092 200.812 120.692 201.22C120.124 201.796 119.38 202.084 118.46 202.084C118.244 202.084 117.96 202.052 117.608 201.988L117.14 201.412V200.848C117.444 200.912 117.748 200.944 118.052 200.944C118.948 200.944 119.572 200.732 119.924 200.308C120.284 199.884 120.484 199.112 120.524 197.992ZM120.344 196.252C120.344 195.108 119.94 194.536 119.132 194.536C118.756 194.536 118.452 194.684 118.22 194.98C117.996 195.276 117.884 195.668 117.884 196.156C117.884 196.604 117.996 196.972 118.22 197.26C118.444 197.548 118.728 197.692 119.072 197.692C119.44 197.692 119.744 197.556 119.984 197.284C120.224 197.012 120.344 196.668 120.344 196.252ZM126.653 193.408V194.632H124.013L123.893 196.78C124.157 196.74 124.373 196.72 124.541 196.72C125.453 196.72 126.157 197.008 126.653 197.584C127.077 198.08 127.289 198.732 127.289 199.54C127.289 200.404 126.965 201.068 126.317 201.532C125.797 201.9 125.141 202.084 124.349 202.084C123.829 202.084 123.317 202.02 122.813 201.892L122.345 201.328V200.764C122.897 200.876 123.377 200.932 123.785 200.932C124.497 200.932 125.001 200.836 125.297 200.644C125.649 200.42 125.825 200.028 125.825 199.468C125.825 198.9 125.677 198.492 125.381 198.244C125.085 197.996 124.601 197.872 123.929 197.872C123.649 197.872 123.209 197.904 122.609 197.968C122.529 197.976 122.461 197.984 122.405 197.992L122.657 193.408H126.653ZM129.923 193.72C130.531 193.72 131.011 193.96 131.363 194.44C131.699 194.912 131.867 195.528 131.867 196.288C131.867 197.048 131.699 197.648 131.363 198.088C131.027 198.52 130.551 198.736 129.935 198.736C129.287 198.736 128.799 198.508 128.471 198.052C128.151 197.62 127.991 197.036 127.991 196.3C127.991 195.54 128.151 194.932 128.471 194.476C128.799 193.972 129.283 193.72 129.923 193.72ZM135.527 193.924L130.775 202H129.599L134.363 193.924H135.527ZM129.923 194.488C129.603 194.488 129.367 194.656 129.215 194.992C129.071 195.312 128.999 195.748 128.999 196.3C128.999 196.78 129.059 197.16 129.179 197.44C129.323 197.792 129.571 197.968 129.923 197.968C130.267 197.968 130.519 197.792 130.679 197.44C130.799 197.144 130.859 196.764 130.859 196.3C130.859 195.756 130.783 195.32 130.631 194.992C130.463 194.656 130.227 194.488 129.923 194.488ZM135.215 197.2C135.831 197.2 136.311 197.44 136.655 197.92C136.999 198.408 137.171 199.024 137.171 199.768C137.171 200.52 136.999 201.12 136.655 201.568C136.319 202 135.843 202.216 135.227 202.216C134.579 202.216 134.091 201.988 133.763 201.532C133.443 201.1 133.283 200.512 133.283 199.768C133.283 199.016 133.443 198.408 133.763 197.944C134.107 197.448 134.591 197.2 135.215 197.2ZM135.215 197.968C134.895 197.968 134.663 198.136 134.519 198.472C134.367 198.784 134.291 199.216 134.291 199.768C134.291 200.224 134.351 200.608 134.471 200.92C134.615 201.272 134.863 201.448 135.215 201.448C135.567 201.448 135.819 201.268 135.971 200.908C136.091 200.628 136.151 200.248 136.151 199.768C136.151 199.232 136.075 198.8 135.923 198.472C135.771 198.136 135.535 197.968 135.215 197.968ZM142.644 193.408L143.148 193.816C142.708 194.472 142.372 195.22 142.14 196.06C141.94 196.82 141.84 197.592 141.84 198.376C141.84 199.264 141.972 200.124 142.236 200.956C142.428 201.556 142.732 202.196 143.148 202.876L142.644 203.272H142.224C141.656 202.624 141.236 201.872 140.964 201.016C140.692 200.2 140.556 199.324 140.556 198.388C140.556 197.436 140.692 196.548 140.964 195.724C141.236 194.852 141.656 194.08 142.224 193.408H142.644ZM149.811 198.1H146.403V202H144.639V193.408H146.403V196.624H149.799V193.408H151.575V202H149.811V198.1ZM154.898 195.64V202H153.242V195.64H154.898ZM154.058 193.456C154.274 193.456 154.454 193.532 154.598 193.684C154.75 193.836 154.826 194.02 154.826 194.236C154.826 194.452 154.75 194.636 154.598 194.788C154.454 194.932 154.274 195.004 154.058 195.004C153.842 195.004 153.658 194.932 153.506 194.788C153.354 194.636 153.278 194.452 153.278 194.236C153.278 194.02 153.354 193.836 153.506 193.684C153.658 193.532 153.842 193.456 154.058 193.456ZM160.572 195.64H162.144V201.94C162.144 202.924 161.836 203.628 161.22 204.052C160.7 204.396 159.988 204.568 159.084 204.568C158.14 204.568 157.42 204.364 156.924 203.956C156.516 203.628 156.304 203.232 156.288 202.768H157.992C158.128 203.264 158.52 203.512 159.168 203.512C159.576 203.512 159.92 203.384 160.2 203.128C160.448 202.904 160.572 202.556 160.572 202.084V201.136C160.268 201.512 159.984 201.772 159.72 201.916C159.456 202.06 159.136 202.132 158.76 202.132C157.936 202.132 157.284 201.796 156.804 201.124C156.38 200.548 156.168 199.816 156.168 198.928C156.168 197.88 156.452 197.024 157.02 196.36C157.516 195.792 158.116 195.508 158.82 195.508C159.508 195.508 160.092 195.84 160.572 196.504V195.64ZM159.156 196.888C158.756 196.888 158.432 197.072 158.184 197.44C157.944 197.808 157.824 198.288 157.824 198.88C157.824 199.448 157.944 199.904 158.184 200.248C158.432 200.592 158.756 200.764 159.156 200.764C159.572 200.764 159.916 200.588 160.188 200.236C160.444 199.908 160.572 199.452 160.572 198.868C160.572 198.236 160.424 197.736 160.128 197.368C159.872 197.048 159.548 196.888 159.156 196.888ZM163.751 193.408H165.407V196.54C165.855 195.852 166.475 195.508 167.267 195.508C167.827 195.508 168.299 195.672 168.683 196C169.123 196.36 169.343 196.932 169.343 197.716V202H167.687V198.052C167.687 197.292 167.351 196.912 166.679 196.912C166.303 196.912 165.995 197.028 165.755 197.26C165.523 197.492 165.407 197.792 165.407 198.16V202H163.751V193.408ZM171.205 193.408H171.637C172.181 194.056 172.601 194.828 172.897 195.724C173.161 196.564 173.293 197.452 173.293 198.388C173.293 199.308 173.161 200.184 172.897 201.016C172.601 201.896 172.181 202.648 171.637 203.272H171.205L170.701 202.876C171.101 202.244 171.405 201.604 171.613 200.956C171.877 200.124 172.009 199.264 172.009 198.376C172.009 197.552 171.909 196.78 171.709 196.06C171.477 195.22 171.141 194.472 170.701 193.816L171.205 193.408Z" fill="#006B3B" fill-opacity="0.906"/>
</g>
<path d="M0 177H256V175H0V177Z" fill="#01012E" fill-opacity="0.134" mask="url(#path-20-inside-4_1563_53129)"/>
</g>
<path d="M6 0.5H250C253.038 0.5 255.5 2.96243 255.5 6V214C255.5 217.038 253.038 219.5 250 219.5H6C2.96243 219.5 0.5 217.038 0.5 214V5.99999C0.5 2.96243 2.96243 0.5 6 0.5Z" stroke="#01012E" stroke-opacity="0.134"/>
<defs>
<clipPath id="clip0_1563_53129">
<path d="M0 5.99999C0 2.68629 2.68629 0 6 0H250C253.314 0 256 2.68629 256 6V214C256 217.314 253.314 220 250 220H6C2.68629 220 0 217.314 0 214V5.99999Z" fill="white"/>
</clipPath>
<clipPath id="clip1_1563_53129">
<rect width="256" height="44" fill="white"/>
</clipPath>
<clipPath id="clip2_1563_53129">
<path d="M0 44H256V88H0V44Z" fill="white"/>
</clipPath>
<clipPath id="clip3_1563_53129">
<path d="M0 88H256V132H0V88Z" fill="white"/>
</clipPath>
<clipPath id="clip4_1563_53129">
<path d="M0 132H256V176H0V132Z" fill="white"/>
</clipPath>
<clipPath id="clip5_1563_53129">
<path d="M0 176H256V220H0V176Z" fill="white"/>
</clipPath>
</defs>
</svg>
