<svg width="256" height="220" viewBox="0 0 256 220" fill="none" xmlns="http://www.w3.org/2000/svg">
<g clip-path="url(#clip0_1563_59869)">
<path d="M0 5.99999C0 2.68629 2.68629 0 6 0H250C253.314 0 256 2.68629 256 6V214C256 217.314 253.314 220 250 220H6C2.68629 220 0 217.314 0 214V5.99999Z" fill="white"/>
<g clip-path="url(#clip1_1563_59869)">
<rect width="256" height="44" fill="#050558" fill-opacity="0.024"/>
<rect width="256" height="44" fill="#050558" fill-opacity="0.024"/>
<path d="M17.642 23.29V27H15.584V23.29L12.252 16.976H14.548L16.592 21.4L18.51 16.976H20.806L17.642 23.29ZM25.1401 19.426C26.3628 19.426 27.3008 19.818 27.9541 20.602C28.5234 21.274 28.8081 22.17 28.8081 23.29C28.8081 24.578 28.4394 25.5673 27.7021 26.258C27.0581 26.8553 26.2041 27.154 25.1401 27.154C23.9174 27.154 22.9794 26.7667 22.3261 25.992C21.7568 25.3107 21.4721 24.41 21.4721 23.29C21.4721 22.0113 21.8408 21.0267 22.5781 20.336C23.2221 19.7293 24.0761 19.426 25.1401 19.426ZM25.1401 20.98C24.6174 20.98 24.1974 21.1947 23.8801 21.624C23.5628 22.044 23.4041 22.5993 23.4041 23.29C23.4041 24.0367 23.5814 24.6247 23.9361 25.054C24.2534 25.418 24.6548 25.6 25.1401 25.6C25.6628 25.6 26.0828 25.39 26.4001 24.97C26.7268 24.5407 26.8901 23.9807 26.8901 23.29C26.8901 22.5527 26.7081 21.9693 26.3441 21.54C26.0268 21.1667 25.6254 20.98 25.1401 20.98ZM36.7973 27H34.8793V25.95C34.3566 26.7527 33.6146 27.154 32.6533 27.154C31.8039 27.154 31.1599 26.902 30.7213 26.398C30.3479 25.9593 30.1613 25.3573 30.1613 24.592V19.58H32.0933V24.186C32.0933 25.0727 32.5039 25.516 33.3253 25.516C33.7919 25.516 34.1653 25.3853 34.4453 25.124C34.7346 24.8627 34.8793 24.508 34.8793 24.06V19.58H36.7973V27ZM38.6258 19.58H40.5578V20.994C40.8005 19.9487 41.4911 19.426 42.6298 19.426C42.8071 19.426 42.9331 19.426 43.0078 19.426L43.0218 21.33C42.7885 21.2833 42.5458 21.26 42.2938 21.26C41.6591 21.26 41.2205 21.3767 40.9778 21.61C40.6978 21.8713 40.5578 22.3427 40.5578 23.024V27H38.6258V19.58ZM49.9718 19.734V21.008H48.8518V27H46.9198V21.008H45.8698V19.734H46.9198V18.838C46.9198 17.5967 47.5452 16.976 48.7958 16.976C49.0945 16.976 49.4678 16.99 49.9158 17.018V18.46C49.7292 18.432 49.5472 18.418 49.3698 18.418C49.0245 18.418 48.8518 18.614 48.8518 19.006V19.734H49.9718ZM53.0819 19.58V27H51.1499V19.58H53.0819ZM52.1019 17.032C52.3539 17.032 52.5639 17.1207 52.7319 17.298C52.9092 17.4753 52.9979 17.69 52.9979 17.942C52.9979 18.194 52.9092 18.4087 52.7319 18.586C52.5639 18.754 52.3539 18.838 52.1019 18.838C51.8499 18.838 51.6352 18.754 51.4579 18.586C51.2806 18.4087 51.1919 18.194 51.1919 17.942C51.1919 17.69 51.2806 17.4753 51.4579 17.298C51.6352 17.1207 51.8499 17.032 52.1019 17.032ZM54.95 19.58H56.882V20.63C57.4047 19.8273 58.142 19.426 59.094 19.426C59.9434 19.426 60.5874 19.678 61.026 20.182C61.3994 20.63 61.586 21.2367 61.586 22.002V27H59.668V22.394C59.668 21.5073 59.2527 21.064 58.422 21.064C57.9554 21.064 57.582 21.1993 57.302 21.47C57.022 21.7313 56.882 22.0813 56.882 22.52V27H54.95V19.58ZM69.8122 23.794H64.8282C64.8562 24.3913 64.9496 24.816 65.1082 25.068C65.3789 25.4787 65.8036 25.684 66.3822 25.684C67.1009 25.684 67.5816 25.3853 67.8242 24.788H69.7282C69.5136 25.516 69.0936 26.0947 68.4682 26.524C67.8522 26.944 67.1289 27.154 66.2982 27.154C65.1689 27.154 64.3009 26.776 63.6942 26.02C63.1622 25.3573 62.8962 24.4847 62.8962 23.402C62.8962 22.086 63.2416 21.0687 63.9322 20.35C64.5389 19.734 65.3369 19.426 66.3262 19.426C67.0822 19.426 67.7449 19.6127 68.3142 19.986C68.8836 20.3593 69.2896 20.882 69.5322 21.554C69.7282 22.0767 69.8262 22.7067 69.8262 23.444C69.8262 23.5373 69.8216 23.654 69.8122 23.794ZM67.8102 22.52C67.7169 21.4373 67.2176 20.896 66.3122 20.896C65.4629 20.896 64.9776 21.4373 64.8562 22.52H67.8102ZM74.2865 22.884V24.326H70.8285V22.884H74.2865ZM79.1906 19.58V20.854H77.8886V24.984C77.8886 25.2547 77.9353 25.4413 78.0286 25.544C78.1313 25.6467 78.3133 25.698 78.5746 25.698C78.7893 25.698 79.0646 25.614 79.4006 25.446C79.4286 25.4273 79.4519 25.4133 79.4706 25.404L79.6946 26.72C79.1066 27.0093 78.4906 27.154 77.8466 27.154C76.5866 27.154 75.9566 26.5753 75.9566 25.418V20.854H75.0046V19.58H75.9566V18.348L77.8886 17.242V19.58H79.1906ZM87.5063 27H85.5883V25.95C85.0656 26.7527 84.3236 27.154 83.3623 27.154C82.5129 27.154 81.8689 26.902 81.4303 26.398C81.0569 25.9593 80.8703 25.3573 80.8703 24.592V19.58H82.8023V24.186C82.8023 25.0727 83.2129 25.516 84.0343 25.516C84.5009 25.516 84.8743 25.3853 85.1543 25.124C85.4436 24.8627 85.5883 24.508 85.5883 24.06V19.58H87.5063V27ZM89.3348 19.58H91.2668V20.63C91.7895 19.8273 92.5268 19.426 93.4788 19.426C94.3281 19.426 94.9721 19.678 95.4108 20.182C95.7841 20.63 95.9708 21.2367 95.9708 22.002V27H94.0528V22.394C94.0528 21.5073 93.6375 21.064 92.8068 21.064C92.3401 21.064 91.9668 21.1993 91.6868 21.47C91.4068 21.7313 91.2668 22.0813 91.2668 22.52V27H89.3348V19.58ZM104.197 23.794H99.213C99.241 24.3913 99.3343 24.816 99.493 25.068C99.7637 25.4787 100.188 25.684 100.767 25.684C101.486 25.684 101.966 25.3853 102.209 24.788H104.113C103.898 25.516 103.478 26.0947 102.853 26.524C102.237 26.944 101.514 27.154 100.683 27.154C99.5537 27.154 98.6857 26.776 98.079 26.02C97.547 25.3573 97.281 24.4847 97.281 23.402C97.281 22.086 97.6263 21.0687 98.317 20.35C98.9237 19.734 99.7217 19.426 100.711 19.426C101.467 19.426 102.13 19.6127 102.699 19.986C103.268 20.3593 103.674 20.882 103.917 21.554C104.113 22.0767 104.211 22.7067 104.211 23.444C104.211 23.5373 104.206 23.654 104.197 23.794ZM102.195 22.52C102.102 21.4373 101.602 20.896 100.697 20.896C99.8477 20.896 99.3623 21.4373 99.241 22.52H102.195ZM112.199 16.976V27H110.267V26.174C109.819 26.8273 109.143 27.154 108.237 27.154C107.257 27.154 106.469 26.7433 105.871 25.922C105.358 25.222 105.101 24.3493 105.101 23.304C105.101 22.0627 105.428 21.0827 106.081 20.364C106.651 19.7387 107.365 19.426 108.223 19.426C109.129 19.426 109.81 19.7713 110.267 20.462V16.976H112.199ZM108.657 21.008C108.172 21.008 107.78 21.218 107.481 21.638C107.183 22.058 107.033 22.6087 107.033 23.29C107.033 23.962 107.178 24.508 107.467 24.928C107.766 25.3387 108.163 25.544 108.657 25.544C109.152 25.544 109.544 25.3387 109.833 24.928C110.132 24.5173 110.281 23.9713 110.281 23.29C110.281 22.5993 110.132 22.0487 109.833 21.638C109.535 21.218 109.143 21.008 108.657 21.008ZM116.583 19.58H118.501V20.476C119.07 19.776 119.747 19.426 120.531 19.426C121.492 19.426 122.164 19.79 122.547 20.518C123.107 19.79 123.83 19.426 124.717 19.426C125.464 19.426 126.042 19.6313 126.453 20.042C126.873 20.4433 127.083 21.0033 127.083 21.722V27H125.165V22.03C125.165 21.386 124.815 21.064 124.115 21.064C123.704 21.064 123.382 21.1947 123.149 21.456C122.916 21.708 122.799 22.0627 122.799 22.52V27H120.867V22.03C120.867 21.386 120.522 21.064 119.831 21.064C119.42 21.064 119.098 21.1947 118.865 21.456C118.632 21.708 118.515 22.0627 118.515 22.52V27H116.583V19.58ZM132.136 19.426C133.359 19.426 134.297 19.818 134.95 20.602C135.52 21.274 135.804 22.17 135.804 23.29C135.804 24.578 135.436 25.5673 134.698 26.258C134.054 26.8553 133.2 27.154 132.136 27.154C130.914 27.154 129.976 26.7667 129.322 25.992C128.753 25.3107 128.468 24.41 128.468 23.29C128.468 22.0113 128.837 21.0267 129.574 20.336C130.218 19.7293 131.072 19.426 132.136 19.426ZM132.136 20.98C131.614 20.98 131.194 21.1947 130.876 21.624C130.559 22.044 130.4 22.5993 130.4 23.29C130.4 24.0367 130.578 24.6247 130.932 25.054C131.25 25.418 131.651 25.6 132.136 25.6C132.659 25.6 133.079 25.39 133.396 24.97C133.723 24.5407 133.886 23.9807 133.886 23.29C133.886 22.5527 133.704 21.9693 133.34 21.54C133.023 21.1667 132.622 20.98 132.136 20.98ZM143.863 16.976V27H141.931V26.174C141.483 26.8273 140.807 27.154 139.901 27.154C138.921 27.154 138.133 26.7433 137.535 25.922C137.022 25.222 136.765 24.3493 136.765 23.304C136.765 22.0627 137.092 21.0827 137.745 20.364C138.315 19.7387 139.029 19.426 139.887 19.426C140.793 19.426 141.474 19.7713 141.931 20.462V16.976H143.863ZM140.321 21.008C139.836 21.008 139.444 21.218 139.145 21.638C138.847 22.058 138.697 22.6087 138.697 23.29C138.697 23.962 138.842 24.508 139.131 24.928C139.43 25.3387 139.827 25.544 140.321 25.544C140.816 25.544 141.208 25.3387 141.497 24.928C141.796 24.5173 141.945 23.9713 141.945 23.29C141.945 22.5993 141.796 22.0487 141.497 21.638C141.199 21.218 140.807 21.008 140.321 21.008ZM152.131 23.794H147.147C147.175 24.3913 147.268 24.816 147.427 25.068C147.697 25.4787 148.122 25.684 148.701 25.684C149.419 25.684 149.9 25.3853 150.143 24.788H152.047C151.832 25.516 151.412 26.0947 150.787 26.524C150.171 26.944 149.447 27.154 148.617 27.154C147.487 27.154 146.619 26.776 146.013 26.02C145.481 25.3573 145.215 24.4847 145.215 23.402C145.215 22.086 145.56 21.0687 146.251 20.35C146.857 19.734 147.655 19.426 148.645 19.426C149.401 19.426 150.063 19.6127 150.633 19.986C151.202 20.3593 151.608 20.882 151.851 21.554C152.047 22.0767 152.145 22.7067 152.145 23.444C152.145 23.5373 152.14 23.654 152.131 23.794ZM150.129 22.52C150.035 21.4373 149.536 20.896 148.631 20.896C147.781 20.896 147.296 21.4373 147.175 22.52H150.129ZM155.457 16.976V27H153.525V16.976H155.457ZM163.499 21.764H161.539C161.53 21.4653 161.422 21.2553 161.217 21.134C161.012 21.0033 160.657 20.938 160.153 20.938C159.416 20.938 159.047 21.1527 159.047 21.582C159.047 21.834 159.271 22.0207 159.719 22.142L162.155 22.828C163.126 23.0987 163.611 23.7147 163.611 24.676C163.611 25.432 163.317 26.0433 162.729 26.51C162.178 26.9393 161.385 27.154 160.349 27.154C159.08 27.154 158.17 26.9673 157.619 26.594C157.078 26.2393 156.788 25.6653 156.751 24.872H158.669C158.725 25.18 158.856 25.3853 159.061 25.488C159.276 25.5907 159.668 25.642 160.237 25.642C161.198 25.642 161.679 25.4133 161.679 24.956C161.679 24.6853 161.464 24.4847 161.035 24.354L158.739 23.654C158.151 23.4767 157.75 23.2713 157.535 23.038C157.255 22.7487 157.115 22.3567 157.115 21.862C157.115 21.05 157.423 20.4247 158.039 19.986C158.58 19.6127 159.29 19.426 160.167 19.426C161.231 19.426 162.071 19.664 162.687 20.14C163.219 20.56 163.49 21.1013 163.499 21.764Z" fill="#1C2024"/>
</g>
<g clip-path="url(#clip2_1563_59869)">
<mask id="path-4-inside-1_1563_59869" fill="white">
<path d="M0 44H256V88H0V44Z"/>
</mask>
<path d="M0 44H256V88H0V44Z" fill="white" fill-opacity="0.01"/>
<rect width="256" height="44" transform="translate(0 44)" fill="white" fill-opacity="0.01"/>
<path d="M17.656 63.804H18.72V69.824C18.72 71.3827 18.468 72.4653 17.964 73.072C17.46 73.688 16.634 73.996 15.486 73.996C14.59 73.996 13.89 73.7813 13.386 73.352C12.938 72.9693 12.686 72.4607 12.63 71.826H13.806C13.862 72.1993 14.002 72.4747 14.226 72.652C14.5527 72.904 14.9913 73.03 15.542 73.03C16.2887 73.03 16.8207 72.806 17.138 72.358C17.4087 71.9753 17.544 71.322 17.544 70.398V69.936C16.9467 70.748 16.228 71.154 15.388 71.154C14.5667 71.154 13.8713 70.846 13.302 70.23C12.6953 69.5673 12.392 68.662 12.392 67.514C12.392 66.282 12.7093 65.302 13.344 64.574C13.904 63.958 14.6087 63.65 15.458 63.65C16.3727 63.65 17.1053 64.0607 17.656 64.882V63.804ZM15.584 64.7C14.968 64.7 14.478 64.9473 14.114 65.442C13.7593 65.9273 13.582 66.5947 13.582 67.444C13.582 68.3307 13.7873 69.0073 14.198 69.474C14.5433 69.8847 15.01 70.09 15.598 70.09C16.214 70.09 16.69 69.8567 17.026 69.39C17.3713 68.9233 17.544 68.2747 17.544 67.444C17.544 66.5293 17.348 65.8293 16.956 65.344C16.6107 64.9147 16.1533 64.7 15.584 64.7ZM20.3846 73.996V63.804H21.4486V64.91C21.9806 64.07 22.7459 63.65 23.7446 63.65C24.7619 63.65 25.5459 64.042 26.0966 64.826C26.5819 65.5073 26.8246 66.4033 26.8246 67.514C26.8246 68.6993 26.5072 69.6233 25.8726 70.286C25.3219 70.8647 24.6079 71.154 23.7306 71.154C22.8439 71.154 22.1112 70.832 21.5326 70.188V73.996H20.3846ZM23.5486 64.714C22.9419 64.714 22.4519 64.9613 22.0786 65.456C21.7146 65.9507 21.5326 66.6133 21.5326 67.444C21.5326 68.3027 21.7426 68.9747 22.1626 69.46C22.5172 69.8707 22.9792 70.076 23.5486 70.076C24.1832 70.076 24.6872 69.838 25.0606 69.362C25.4432 68.8767 25.6346 68.2373 25.6346 67.444C25.6346 66.5667 25.4199 65.876 24.9906 65.372C24.6079 64.9333 24.1272 64.714 23.5486 64.714ZM31.0652 63.804V64.728H29.5952V69.516C29.5952 69.684 29.6512 69.8287 29.7632 69.95C29.8845 70.062 30.0385 70.118 30.2252 70.118C30.4025 70.118 30.6732 70.076 31.0372 69.992L31.1632 71C30.5845 71.1027 30.1458 71.154 29.8472 71.154C28.9232 71.154 28.4612 70.776 28.4612 70.02V64.728H27.4812V63.804H28.4612V62.334L29.5952 61.816V63.804H31.0652ZM36.8594 72.19V73.086H31.3854V72.19H36.8594ZM42.4285 60.976V67.486H43.9125V68.564H42.4285V70.468L41.8265 71H41.2385V68.564H37.1365V67.514L41.1405 60.976H42.4285ZM41.2385 62.544L38.3125 67.486H41.2385V62.544ZM49.6563 72.19V73.086H44.1823V72.19H49.6563ZM50.5633 63.804H51.6273V65.12C52.0473 64.1307 52.71 63.636 53.6153 63.636C53.7273 63.636 53.8627 63.65 54.0213 63.678V64.854C53.2747 64.8633 52.7613 64.9707 52.4813 65.176C51.968 65.5493 51.7113 66.2447 51.7113 67.262V71H50.5633V63.804ZM61.2334 67.738H55.9274C55.9367 68.354 56.0674 68.844 56.3194 69.208C56.7207 69.796 57.2994 70.09 58.0554 70.09C58.9887 70.09 59.6187 69.6467 59.9454 68.76H61.0934C60.9441 69.516 60.5987 70.104 60.0574 70.524C59.5161 70.944 58.8347 71.154 58.0134 71.154C56.9214 71.154 56.0861 70.7807 55.5074 70.034C54.9941 69.3807 54.7374 68.5173 54.7374 67.444C54.7374 66.2027 55.0734 65.2367 55.7454 64.546C56.3334 63.9487 57.0941 63.65 58.0274 63.65C58.7087 63.65 59.3061 63.8133 59.8194 64.14C60.3421 64.4667 60.7154 64.9147 60.9394 65.484C61.1354 65.9693 61.2334 66.7067 61.2334 67.696V67.738ZM60.0014 66.8C60.0014 66.1747 59.8147 65.6707 59.4414 65.288C59.0774 64.896 58.6061 64.7 58.0274 64.7C57.4394 64.7 56.9587 64.8913 56.5854 65.274C56.2214 65.6473 56.0161 66.156 55.9694 66.8H60.0014ZM69.184 70.034V70.958C68.8667 71.07 68.6193 71.126 68.442 71.126C67.6953 71.126 67.2893 70.7853 67.224 70.104C66.7107 70.804 65.894 71.154 64.774 71.154C63.9993 71.154 63.3973 70.9393 62.968 70.51C62.5947 70.1367 62.408 69.656 62.408 69.068C62.408 68.396 62.646 67.878 63.122 67.514C63.3927 67.3087 63.9573 67.108 64.816 66.912L67.168 66.38L67.182 65.778C67.182 65.0593 66.6407 64.7 65.558 64.7C64.522 64.7 63.9667 65.12 63.892 65.96H62.73C62.758 65.3253 62.9167 64.84 63.206 64.504C63.7007 63.9347 64.5033 63.65 65.614 63.65C67.4153 63.65 68.316 64.3033 68.316 65.61V69.628C68.316 69.9827 68.47 70.16 68.778 70.16C68.8153 70.16 68.9133 70.132 69.072 70.076C69.128 70.0573 69.1653 70.0433 69.184 70.034ZM67.182 67.318L65.334 67.794C64.6713 67.962 64.214 68.1347 63.962 68.312C63.7193 68.4893 63.598 68.7367 63.598 69.054C63.598 69.7913 64.074 70.16 65.026 70.16C65.698 70.16 66.2673 69.9407 66.734 69.502C67.0327 69.2313 67.182 68.9233 67.182 68.578V67.318ZM71.5626 60.976V71H70.4146V60.976H71.5626ZM77.9434 72.19V73.086H72.4694V72.19H77.9434ZM84.9404 67.738H79.6344C79.6438 68.354 79.7744 68.844 80.0264 69.208C80.4278 69.796 81.0064 70.09 81.7624 70.09C82.6958 70.09 83.3258 69.6467 83.6524 68.76H84.8004C84.6511 69.516 84.3058 70.104 83.7644 70.524C83.2231 70.944 82.5418 71.154 81.7204 71.154C80.6284 71.154 79.7931 70.7807 79.2144 70.034C78.7011 69.3807 78.4444 68.5173 78.4444 67.444C78.4444 66.2027 78.7804 65.2367 79.4524 64.546C80.0404 63.9487 80.8011 63.65 81.7344 63.65C82.4158 63.65 83.0131 63.8133 83.5264 64.14C84.0491 64.4667 84.4224 64.9147 84.6464 65.484C84.8424 65.9693 84.9404 66.7067 84.9404 67.696V67.738ZM83.7084 66.8C83.7084 66.1747 83.5218 65.6707 83.1484 65.288C82.7844 64.896 82.3131 64.7 81.7344 64.7C81.1464 64.7 80.6658 64.8913 80.2924 65.274C79.9284 65.6473 79.7231 66.156 79.6764 66.8H83.7084ZM91.617 65.778H90.357C90.3197 65.0593 89.839 64.7 88.915 64.7C88.439 64.7 88.061 64.7933 87.781 64.98C87.5103 65.1573 87.375 65.4 87.375 65.708C87.375 66.1747 87.8183 66.5107 88.705 66.716L89.811 66.968C90.5297 67.136 91.0477 67.374 91.365 67.682C91.6823 67.99 91.841 68.41 91.841 68.942C91.841 69.6233 91.575 70.1647 91.043 70.566C90.511 70.958 89.7923 71.154 88.887 71.154C87.8977 71.154 87.1463 70.9207 86.633 70.454C86.2037 70.0713 85.975 69.5627 85.947 68.928H87.249C87.3237 69.2547 87.4263 69.4927 87.557 69.642C87.809 69.9407 88.2803 70.09 88.971 70.09C89.4843 70.09 89.8903 69.9967 90.189 69.81C90.497 69.614 90.651 69.3573 90.651 69.04C90.651 68.564 90.2823 68.2373 89.545 68.06L88.467 67.808C87.6457 67.612 87.0717 67.3787 86.745 67.108C86.3717 66.8 86.185 66.3567 86.185 65.778C86.185 65.1247 86.4323 64.6067 86.927 64.224C87.431 63.8413 88.103 63.65 88.943 63.65C89.8203 63.65 90.5017 63.8693 90.987 64.308C91.407 64.6907 91.617 65.1807 91.617 65.778ZM96.198 63.804V64.728H94.728V69.516C94.728 69.684 94.784 69.8287 94.896 69.95C95.0173 70.062 95.1713 70.118 95.358 70.118C95.5353 70.118 95.806 70.076 96.17 69.992L96.296 71C95.7173 71.1027 95.2786 71.154 94.98 71.154C94.056 71.154 93.594 70.776 93.594 70.02V64.728H92.614V63.804H93.594V62.334L94.728 61.816V63.804H96.198ZM103.924 70.034V70.958C103.607 71.07 103.36 71.126 103.182 71.126C102.436 71.126 102.03 70.7853 101.964 70.104C101.451 70.804 100.634 71.154 99.5142 71.154C98.7396 71.154 98.1376 70.9393 97.7082 70.51C97.3349 70.1367 97.1482 69.656 97.1482 69.068C97.1482 68.396 97.3862 67.878 97.8622 67.514C98.1329 67.3087 98.6976 67.108 99.5562 66.912L101.908 66.38L101.922 65.778C101.922 65.0593 101.381 64.7 100.298 64.7C99.2622 64.7 98.7069 65.12 98.6322 65.96H97.4702C97.4982 65.3253 97.6569 64.84 97.9462 64.504C98.4409 63.9347 99.2436 63.65 100.354 63.65C102.156 63.65 103.056 64.3033 103.056 65.61V69.628C103.056 69.9827 103.21 70.16 103.518 70.16C103.556 70.16 103.654 70.132 103.812 70.076C103.868 70.0573 103.906 70.0433 103.924 70.034ZM101.922 67.318L100.074 67.794C99.4116 67.962 98.9542 68.1347 98.7022 68.312C98.4596 68.4893 98.3382 68.7367 98.3382 69.054C98.3382 69.7913 98.8142 70.16 99.7662 70.16C100.438 70.16 101.008 69.9407 101.474 69.502C101.773 69.2313 101.922 68.9233 101.922 68.578V67.318ZM107.997 63.804V64.728H106.527V69.516C106.527 69.684 106.583 69.8287 106.695 69.95C106.816 70.062 106.97 70.118 107.157 70.118C107.334 70.118 107.605 70.076 107.969 69.992L108.095 71C107.516 71.1027 107.077 71.154 106.779 71.154C105.855 71.154 105.393 70.776 105.393 70.02V64.728H104.413V63.804H105.393V62.334L106.527 61.816V63.804H107.997ZM115.415 67.738H110.109C110.118 68.354 110.249 68.844 110.501 69.208C110.902 69.796 111.481 70.09 112.237 70.09C113.17 70.09 113.8 69.6467 114.127 68.76H115.275C115.126 69.516 114.78 70.104 114.239 70.524C113.698 70.944 113.016 71.154 112.195 71.154C111.103 71.154 110.268 70.7807 109.689 70.034C109.176 69.3807 108.919 68.5173 108.919 67.444C108.919 66.2027 109.255 65.2367 109.927 64.546C110.515 63.9487 111.276 63.65 112.209 63.65C112.89 63.65 113.488 63.8133 114.001 64.14C114.524 64.4667 114.897 64.9147 115.121 65.484C115.317 65.9693 115.415 66.7067 115.415 67.696V67.738ZM114.183 66.8C114.183 66.1747 113.996 65.6707 113.623 65.288C113.259 64.896 112.788 64.7 112.209 64.7C111.621 64.7 111.14 64.8913 110.767 65.274C110.403 65.6473 110.198 66.156 110.151 66.8H114.183ZM121.434 72.19V73.086H115.96V72.19H121.434ZM122.355 63.804H123.419V64.84C123.979 64.0467 124.716 63.65 125.631 63.65C126.517 63.65 127.161 64.0047 127.563 64.714C127.908 64.3127 128.239 64.0373 128.557 63.888C128.883 63.7293 129.285 63.65 129.761 63.65C131.161 63.65 131.861 64.308 131.861 65.624V71H130.713V66.072C130.713 65.12 130.265 64.644 129.369 64.644C128.902 64.644 128.505 64.826 128.179 65.19C127.852 65.554 127.689 65.988 127.689 66.492V71H126.541V66.072C126.541 65.12 126.097 64.644 125.211 64.644C124.735 64.644 124.329 64.826 123.993 65.19C123.666 65.5447 123.503 65.9787 123.503 66.492V71H122.355V63.804ZM140.196 70.034V70.958C139.878 71.07 139.631 71.126 139.454 71.126C138.707 71.126 138.301 70.7853 138.236 70.104C137.722 70.804 136.906 71.154 135.786 71.154C135.011 71.154 134.409 70.9393 133.98 70.51C133.606 70.1367 133.42 69.656 133.42 69.068C133.42 68.396 133.658 67.878 134.134 67.514C134.404 67.3087 134.969 67.108 135.828 66.912L138.18 66.38L138.194 65.778C138.194 65.0593 137.652 64.7 136.57 64.7C135.534 64.7 134.978 65.12 134.904 65.96H133.742C133.77 65.3253 133.928 64.84 134.218 64.504C134.712 63.9347 135.515 63.65 136.626 63.65C138.427 63.65 139.328 64.3033 139.328 65.61V69.628C139.328 69.9827 139.482 70.16 139.79 70.16C139.827 70.16 139.925 70.132 140.084 70.076C140.14 70.0573 140.177 70.0433 140.196 70.034ZM138.194 67.318L136.346 67.794C135.683 67.962 135.226 68.1347 134.974 68.312C134.731 68.4893 134.61 68.7367 134.61 69.054C134.61 69.7913 135.086 70.16 136.038 70.16C136.71 70.16 137.279 69.9407 137.746 69.502C138.044 69.2313 138.194 68.9233 138.194 68.578V67.318ZM145.836 63.804H147.068L143.862 72.512C143.489 73.5013 142.868 73.996 142 73.996C141.59 73.996 141.23 73.9027 140.922 73.716L141.146 72.722C141.38 72.8153 141.608 72.862 141.832 72.862C142.28 72.862 142.593 72.6287 142.77 72.162L143.204 71.014L140.768 63.804H142L143.834 69.404L145.836 63.804ZM152.783 72.19V73.086H147.309V72.19H152.783ZM153.662 61.704C154.54 61.1347 155.426 60.85 156.322 60.85C157.2 60.85 157.858 61.1067 158.296 61.62C158.679 62.068 158.87 62.6653 158.87 63.412C158.87 64 158.721 64.574 158.422 65.134C158.152 65.61 157.676 66.254 156.994 67.066L155.02 69.306L154.446 70.006H159.038V70.398L158.548 71H153.186V69.992L154.25 68.718L156.406 66.212C156.836 65.6987 157.139 65.2693 157.316 64.924C157.559 64.4573 157.68 64.0047 157.68 63.566C157.68 63.0807 157.536 62.6887 157.246 62.39C156.957 62.0913 156.57 61.942 156.084 61.942C155.515 61.942 154.922 62.1613 154.306 62.6L153.662 61.704ZM163.188 71.182C161.947 71.182 161.06 70.5333 160.528 69.236C160.183 68.4053 160.01 67.374 160.01 66.142C160.01 64.5927 160.281 63.314 160.822 62.306C161.354 61.298 162.143 60.794 163.188 60.794C164.206 60.794 164.985 61.284 165.526 62.264C166.096 63.2627 166.38 64.5413 166.38 66.1C166.38 67.5653 166.147 68.7413 165.68 69.628C165.13 70.664 164.299 71.182 163.188 71.182ZM165.162 66.128C165.162 63.2813 164.504 61.858 163.188 61.858C161.882 61.858 161.228 63.272 161.228 66.1C161.228 67.2853 161.336 68.1767 161.55 68.774C161.858 69.6607 162.404 70.104 163.188 70.104C164.504 70.104 165.162 68.7787 165.162 66.128ZM167.813 61.704C168.69 61.1347 169.577 60.85 170.473 60.85C171.35 60.85 172.008 61.1067 172.447 61.62C172.829 62.068 173.021 62.6653 173.021 63.412C173.021 64 172.871 64.574 172.573 65.134C172.302 65.61 171.826 66.254 171.145 67.066L169.171 69.306L168.597 70.006H173.189V70.398L172.699 71H167.337V69.992L168.401 68.718L170.557 66.212C170.986 65.6987 171.289 65.2693 171.467 64.924C171.709 64.4573 171.831 64.0047 171.831 63.566C171.831 63.0807 171.686 62.6887 171.397 62.39C171.107 62.0913 170.72 61.942 170.235 61.942C169.665 61.942 169.073 62.1613 168.457 62.6L167.813 61.704ZM174.903 61.13C175.509 60.9433 176.004 60.85 176.387 60.85C177.32 60.85 178.067 61.0927 178.627 61.578C179.159 62.0447 179.425 62.67 179.425 63.454C179.425 64.77 178.841 65.5587 177.675 65.82C178.347 65.932 178.874 66.2167 179.257 66.674C179.649 67.1313 179.845 67.696 179.845 68.368C179.845 69.3387 179.467 70.076 178.711 70.58C178.132 70.9627 177.409 71.154 176.541 71.154C175.981 71.154 175.421 71.0747 174.861 70.916L174.413 70.356V69.922C175.057 70.062 175.621 70.132 176.107 70.132C177.796 70.132 178.641 69.5627 178.641 68.424C178.641 67.808 178.384 67.29 177.871 66.87C177.581 66.6367 177.273 66.478 176.947 66.394C176.629 66.3007 176.158 66.2493 175.533 66.24V65.33H176.723C177.171 65.33 177.535 65.1853 177.815 64.896C178.104 64.5973 178.249 64.2147 178.249 63.748C178.249 63.1973 178.067 62.7633 177.703 62.446C177.339 62.1193 176.844 61.956 176.219 61.956C175.911 61.956 175.472 62.0167 174.903 62.138V61.13Z" fill="#000713" fill-opacity="0.624"/>
</g>
<path d="M0 45H256V43H0V45Z" fill="#01012E" fill-opacity="0.134" mask="url(#path-4-inside-1_1563_59869)"/>
<g clip-path="url(#clip3_1563_59869)">
<mask id="path-7-inside-2_1563_59869" fill="white">
<path d="M0 88H256V132H0V88Z"/>
</mask>
<path d="M0 88H256V132H0V88Z" fill="white" fill-opacity="0.01"/>
<rect width="256" height="44" transform="translate(0 88)" fill="white" fill-opacity="0.01"/>
<path d="M12.966 107.804H14.03V108.84C14.59 108.047 15.3273 107.65 16.242 107.65C17.1287 107.65 17.7727 108.005 18.174 108.714C18.5193 108.313 18.8507 108.037 19.168 107.888C19.4947 107.729 19.896 107.65 20.372 107.65C21.772 107.65 22.472 108.308 22.472 109.624V115H21.324V110.072C21.324 109.12 20.876 108.644 19.98 108.644C19.5133 108.644 19.1167 108.826 18.79 109.19C18.4633 109.554 18.3 109.988 18.3 110.492V115H17.152V110.072C17.152 109.12 16.7087 108.644 15.822 108.644C15.346 108.644 14.94 108.826 14.604 109.19C14.2773 109.545 14.114 109.979 14.114 110.492V115H12.966V107.804ZM25.501 107.804V115H24.367V107.804H25.501ZM24.955 104.99C25.151 104.99 25.3144 105.06 25.445 105.2C25.585 105.331 25.655 105.489 25.655 105.676C25.655 105.872 25.585 106.04 25.445 106.18C25.3144 106.311 25.151 106.376 24.955 106.376C24.7684 106.376 24.605 106.311 24.465 106.18C24.3344 106.04 24.269 105.872 24.269 105.676C24.269 105.489 24.3344 105.331 24.465 105.2C24.605 105.06 24.7684 104.99 24.955 104.99ZM32.5819 109.778H31.3219C31.2845 109.059 30.8039 108.7 29.8799 108.7C29.4039 108.7 29.0259 108.793 28.7459 108.98C28.4752 109.157 28.3399 109.4 28.3399 109.708C28.3399 110.175 28.7832 110.511 29.6699 110.716L30.7759 110.968C31.4945 111.136 32.0125 111.374 32.3299 111.682C32.6472 111.99 32.8059 112.41 32.8059 112.942C32.8059 113.623 32.5399 114.165 32.0079 114.566C31.4759 114.958 30.7572 115.154 29.8519 115.154C28.8625 115.154 28.1112 114.921 27.5979 114.454C27.1685 114.071 26.9399 113.563 26.9119 112.928H28.2139C28.2885 113.255 28.3912 113.493 28.5219 113.642C28.7739 113.941 29.2452 114.09 29.9359 114.09C30.4492 114.09 30.8552 113.997 31.1539 113.81C31.4619 113.614 31.6159 113.357 31.6159 113.04C31.6159 112.564 31.2472 112.237 30.5099 112.06L29.4319 111.808C28.6105 111.612 28.0365 111.379 27.7099 111.108C27.3365 110.8 27.1499 110.357 27.1499 109.778C27.1499 109.125 27.3972 108.607 27.8919 108.224C28.3959 107.841 29.0679 107.65 29.9079 107.65C30.7852 107.65 31.4665 107.869 31.9519 108.308C32.3719 108.691 32.5819 109.181 32.5819 109.778ZM37.1628 107.804V108.728H35.6928V113.516C35.6928 113.684 35.7488 113.829 35.8608 113.95C35.9821 114.062 36.1361 114.118 36.3228 114.118C36.5001 114.118 36.7708 114.076 37.1348 113.992L37.2608 115C36.6821 115.103 36.2435 115.154 35.9448 115.154C35.0208 115.154 34.5588 114.776 34.5588 114.02V108.728H33.5788V107.804H34.5588V106.334L35.6928 105.816V107.804H37.1628ZM38.4911 107.804H39.5551V109.12C39.9751 108.131 40.6377 107.636 41.5431 107.636C41.6551 107.636 41.7904 107.65 41.9491 107.678V108.854C41.2024 108.863 40.6891 108.971 40.4091 109.176C39.8957 109.549 39.6391 110.245 39.6391 111.262V115H38.4911V107.804ZM49.4691 114.034V114.958C49.1518 115.07 48.9045 115.126 48.7271 115.126C47.9805 115.126 47.5745 114.785 47.5091 114.104C46.9958 114.804 46.1791 115.154 45.0591 115.154C44.2845 115.154 43.6825 114.939 43.2531 114.51C42.8798 114.137 42.6931 113.656 42.6931 113.068C42.6931 112.396 42.9311 111.878 43.4071 111.514C43.6778 111.309 44.2425 111.108 45.1011 110.912L47.4531 110.38L47.4671 109.778C47.4671 109.059 46.9258 108.7 45.8431 108.7C44.8071 108.7 44.2518 109.12 44.1771 109.96H43.0151C43.0431 109.325 43.2018 108.84 43.4911 108.504C43.9858 107.935 44.7885 107.65 45.8991 107.65C47.7005 107.65 48.6011 108.303 48.6011 109.61V113.628C48.6011 113.983 48.7551 114.16 49.0631 114.16C49.1005 114.16 49.1985 114.132 49.3571 114.076C49.4131 114.057 49.4505 114.043 49.4691 114.034ZM47.4671 111.318L45.6191 111.794C44.9565 111.962 44.4991 112.135 44.2471 112.312C44.0045 112.489 43.8831 112.737 43.8831 113.054C43.8831 113.791 44.3591 114.16 45.3111 114.16C45.9831 114.16 46.5525 113.941 47.0191 113.502C47.3178 113.231 47.4671 112.923 47.4671 112.578V111.318ZM51.8477 104.976V115H50.6997V104.976H51.8477ZM58.2285 116.19V117.086H52.7545V116.19H58.2285ZM64.6936 104.976V105.858L61.3616 114.342L60.5496 115H59.8216L63.4616 105.984H58.6036V104.976H64.6936ZM65.8572 104.976H66.9912V108.77C67.5232 108.023 68.2699 107.65 69.2312 107.65C70.2486 107.65 71.0326 108.023 71.5832 108.77C72.0686 109.423 72.3112 110.287 72.3112 111.36C72.3112 112.601 71.9892 113.567 71.3452 114.258C70.7852 114.855 70.0619 115.154 69.1752 115.154C68.1766 115.154 67.4159 114.776 66.8932 114.02V115H65.8572V104.976ZM69.0212 108.714C68.4052 108.714 67.9106 108.966 67.5372 109.47C67.1732 109.965 66.9912 110.623 66.9912 111.444C66.9912 112.303 67.2012 112.975 67.6212 113.46C67.9852 113.871 68.4519 114.076 69.0212 114.076C69.6559 114.076 70.1599 113.838 70.5332 113.362C70.9159 112.886 71.1072 112.247 71.1072 111.444C71.1072 110.567 70.8926 109.876 70.4632 109.372C70.0899 108.933 69.6092 108.714 69.0212 108.714ZM76.7338 111.318V112.326H73.2758V111.318H76.7338ZM81.0359 107.804V108.728H79.5659V113.516C79.5659 113.684 79.6219 113.829 79.7339 113.95C79.8552 114.062 80.0092 114.118 80.1959 114.118C80.3732 114.118 80.6439 114.076 81.0079 113.992L81.1339 115C80.5552 115.103 80.1165 115.154 79.8179 115.154C78.8939 115.154 78.4319 114.776 78.4319 114.02V108.728H77.4519V107.804H78.4319V106.334L79.5659 105.816V107.804H81.0359ZM88.4541 111.738H83.1481C83.1574 112.354 83.2881 112.844 83.5401 113.208C83.9414 113.796 84.5201 114.09 85.2761 114.09C86.2094 114.09 86.8394 113.647 87.1661 112.76H88.3141C88.1648 113.516 87.8194 114.104 87.2781 114.524C86.7368 114.944 86.0554 115.154 85.2341 115.154C84.1421 115.154 83.3068 114.781 82.7281 114.034C82.2148 113.381 81.9581 112.517 81.9581 111.444C81.9581 110.203 82.2941 109.237 82.9661 108.546C83.5541 107.949 84.3148 107.65 85.2481 107.65C85.9294 107.65 86.5268 107.813 87.0401 108.14C87.5628 108.467 87.9361 108.915 88.1601 109.484C88.3561 109.969 88.4541 110.707 88.4541 111.696V111.738ZM87.2221 110.8C87.2221 110.175 87.0354 109.671 86.6621 109.288C86.2981 108.896 85.8268 108.7 85.2481 108.7C84.6601 108.7 84.1794 108.891 83.8061 109.274C83.4421 109.647 83.2368 110.156 83.1901 110.8H87.2221ZM95.1307 109.778H93.8707C93.8334 109.059 93.3527 108.7 92.4287 108.7C91.9527 108.7 91.5747 108.793 91.2947 108.98C91.024 109.157 90.8887 109.4 90.8887 109.708C90.8887 110.175 91.332 110.511 92.2187 110.716L93.3247 110.968C94.0434 111.136 94.5614 111.374 94.8787 111.682C95.196 111.99 95.3547 112.41 95.3547 112.942C95.3547 113.623 95.0887 114.165 94.5567 114.566C94.0247 114.958 93.306 115.154 92.4007 115.154C91.4114 115.154 90.66 114.921 90.1467 114.454C89.7174 114.071 89.4887 113.563 89.4607 112.928H90.7627C90.8374 113.255 90.94 113.493 91.0707 113.642C91.3227 113.941 91.794 114.09 92.4847 114.09C92.998 114.09 93.404 113.997 93.7027 113.81C94.0107 113.614 94.1647 113.357 94.1647 113.04C94.1647 112.564 93.796 112.237 93.0587 112.06L91.9807 111.808C91.1594 111.612 90.5854 111.379 90.2587 111.108C89.8854 110.8 89.6987 110.357 89.6987 109.778C89.6987 109.125 89.946 108.607 90.4407 108.224C90.9447 107.841 91.6167 107.65 92.4567 107.65C93.334 107.65 94.0154 107.869 94.5007 108.308C94.9207 108.691 95.1307 109.181 95.1307 109.778ZM99.7116 107.804V108.728H98.2416V113.516C98.2416 113.684 98.2976 113.829 98.4096 113.95C98.531 114.062 98.685 114.118 98.8716 114.118C99.049 114.118 99.3196 114.076 99.6836 113.992L99.8096 115C99.231 115.103 98.7923 115.154 98.4936 115.154C97.5696 115.154 97.1076 114.776 97.1076 114.02V108.728H96.1276V107.804H97.1076V106.334L98.2416 105.816V107.804H99.7116Z" fill="#000713" fill-opacity="0.624"/>
</g>
<path d="M0 89H256V87H0V89Z" fill="#01012E" fill-opacity="0.134" mask="url(#path-7-inside-2_1563_59869)"/>
<g clip-path="url(#clip4_1563_59869)">
<mask id="path-10-inside-3_1563_59869" fill="white">
<path d="M0 132H256V176H0V132Z"/>
</mask>
<path d="M0 132H256V176H0V132Z" fill="white" fill-opacity="0.01"/>
<rect width="256" height="44" transform="translate(0 132)" fill="white" fill-opacity="0.01"/>
<path d="M14.086 148.976V159H12.938V148.976H14.086ZM17.1348 148.976V159H15.9868V148.976H17.1348ZM25.4477 158.034V158.958C25.1303 159.07 24.883 159.126 24.7057 159.126C23.959 159.126 23.553 158.785 23.4877 158.104C22.9743 158.804 22.1577 159.154 21.0377 159.154C20.263 159.154 19.661 158.939 19.2317 158.51C18.8583 158.137 18.6717 157.656 18.6717 157.068C18.6717 156.396 18.9097 155.878 19.3857 155.514C19.6563 155.309 20.221 155.108 21.0797 154.912L23.4317 154.38L23.4457 153.778C23.4457 153.059 22.9043 152.7 21.8217 152.7C20.7857 152.7 20.2303 153.12 20.1557 153.96H18.9937C19.0217 153.325 19.1803 152.84 19.4697 152.504C19.9643 151.935 20.767 151.65 21.8777 151.65C23.679 151.65 24.5797 152.303 24.5797 153.61V157.628C24.5797 157.983 24.7337 158.16 25.0417 158.16C25.079 158.16 25.177 158.132 25.3357 158.076C25.3917 158.057 25.429 158.043 25.4477 158.034ZM23.4457 155.318L21.5977 155.794C20.935 155.962 20.4777 156.135 20.2257 156.312C19.983 156.489 19.8617 156.737 19.8617 157.054C19.8617 157.791 20.3377 158.16 21.2897 158.16C21.9617 158.16 22.531 157.941 22.9977 157.502C23.2963 157.231 23.4457 156.923 23.4457 156.578V155.318ZM26.7062 151.804H27.7702V152.84C28.3302 152.047 29.0676 151.65 29.9822 151.65C30.8689 151.65 31.5129 152.005 31.9142 152.714C32.2596 152.313 32.5909 152.037 32.9082 151.888C33.2349 151.729 33.6362 151.65 34.1122 151.65C35.5122 151.65 36.2122 152.308 36.2122 153.624V159H35.0642V154.072C35.0642 153.12 34.6162 152.644 33.7202 152.644C33.2536 152.644 32.8569 152.826 32.5302 153.19C32.2036 153.554 32.0402 153.988 32.0402 154.492V159H30.8922V154.072C30.8922 153.12 30.4489 152.644 29.5622 152.644C29.0862 152.644 28.6802 152.826 28.3442 153.19C28.0176 153.545 27.8542 153.979 27.8542 154.492V159H26.7062V151.804ZM44.5473 158.034V158.958C44.2299 159.07 43.9826 159.126 43.8053 159.126C43.0586 159.126 42.6526 158.785 42.5873 158.104C42.0739 158.804 41.2573 159.154 40.1373 159.154C39.3626 159.154 38.7606 158.939 38.3313 158.51C37.9579 158.137 37.7713 157.656 37.7713 157.068C37.7713 156.396 38.0093 155.878 38.4853 155.514C38.7559 155.309 39.3206 155.108 40.1793 154.912L42.5313 154.38L42.5453 153.778C42.5453 153.059 42.0039 152.7 40.9213 152.7C39.8853 152.7 39.3299 153.12 39.2553 153.96H38.0933C38.1213 153.325 38.2799 152.84 38.5693 152.504C39.0639 151.935 39.8666 151.65 40.9773 151.65C42.7786 151.65 43.6793 152.303 43.6793 153.61V157.628C43.6793 157.983 43.8333 158.16 44.1413 158.16C44.1786 158.16 44.2766 158.132 44.4353 158.076C44.4913 158.057 44.5286 158.043 44.5473 158.034ZM42.5453 155.318L40.6973 155.794C40.0346 155.962 39.5773 156.135 39.3253 156.312C39.0826 156.489 38.9613 156.737 38.9613 157.054C38.9613 157.791 39.4373 158.16 40.3893 158.16C41.0613 158.16 41.6306 157.941 42.0973 157.502C42.3959 157.231 42.5453 156.923 42.5453 156.578V155.318ZM50.2578 160.19V161.086H44.7838V160.19H50.2578ZM53.9929 151.804V152.728H52.5229V157.516C52.5229 157.684 52.5789 157.829 52.6909 157.95C52.8122 158.062 52.9662 158.118 53.1529 158.118C53.3302 158.118 53.6009 158.076 53.9649 157.992L54.0909 159C53.5122 159.103 53.0736 159.154 52.7749 159.154C51.8509 159.154 51.3889 158.776 51.3889 158.02V152.728H50.4089V151.804H51.3889V150.334L52.5229 149.816V151.804H53.9929ZM61.4111 155.738H56.1051C56.1145 156.354 56.2451 156.844 56.4971 157.208C56.8985 157.796 57.4771 158.09 58.2331 158.09C59.1665 158.09 59.7965 157.647 60.1231 156.76H61.2711C61.1218 157.516 60.7765 158.104 60.2351 158.524C59.6938 158.944 59.0125 159.154 58.1911 159.154C57.0991 159.154 56.2638 158.781 55.6851 158.034C55.1718 157.381 54.9151 156.517 54.9151 155.444C54.9151 154.203 55.2511 153.237 55.9231 152.546C56.5111 151.949 57.2718 151.65 58.2051 151.65C58.8865 151.65 59.4838 151.813 59.9971 152.14C60.5198 152.467 60.8931 152.915 61.1171 153.484C61.3131 153.969 61.4111 154.707 61.4111 155.696V155.738ZM60.1791 154.8C60.1791 154.175 59.9925 153.671 59.6191 153.288C59.2551 152.896 58.7838 152.7 58.2051 152.7C57.6171 152.7 57.1365 152.891 56.7631 153.274C56.3991 153.647 56.1938 154.156 56.1471 154.8H60.1791ZM68.0877 153.778H66.8277C66.7904 153.059 66.3097 152.7 65.3857 152.7C64.9097 152.7 64.5317 152.793 64.2517 152.98C63.9811 153.157 63.8457 153.4 63.8457 153.708C63.8457 154.175 64.2891 154.511 65.1757 154.716L66.2817 154.968C67.0004 155.136 67.5184 155.374 67.8357 155.682C68.1531 155.99 68.3117 156.41 68.3117 156.942C68.3117 157.623 68.0457 158.165 67.5137 158.566C66.9817 158.958 66.2631 159.154 65.3577 159.154C64.3684 159.154 63.6171 158.921 63.1037 158.454C62.6744 158.071 62.4457 157.563 62.4177 156.928H63.7197C63.7944 157.255 63.8971 157.493 64.0277 157.642C64.2797 157.941 64.7511 158.09 65.4417 158.09C65.9551 158.09 66.3611 157.997 66.6597 157.81C66.9677 157.614 67.1217 157.357 67.1217 157.04C67.1217 156.564 66.7531 156.237 66.0157 156.06L64.9377 155.808C64.1164 155.612 63.5424 155.379 63.2157 155.108C62.8424 154.8 62.6557 154.357 62.6557 153.778C62.6557 153.125 62.9031 152.607 63.3977 152.224C63.9017 151.841 64.5737 151.65 65.4137 151.65C66.2911 151.65 66.9724 151.869 67.4577 152.308C67.8777 152.691 68.0877 153.181 68.0877 153.778ZM72.6687 151.804V152.728H71.1987V157.516C71.1987 157.684 71.2547 157.829 71.3667 157.95C71.488 158.062 71.642 158.118 71.8287 158.118C72.006 158.118 72.2767 158.076 72.6407 157.992L72.7667 159C72.188 159.103 71.7493 159.154 71.4507 159.154C70.5267 159.154 70.0647 158.776 70.0647 158.02V152.728H69.0847V151.804H70.0647V150.334L71.1987 149.816V151.804H72.6687ZM78.4629 160.19V161.086H72.9889V160.19H78.4629ZM79.37 151.804H80.518V160.498C80.518 161.497 79.8553 161.996 78.53 161.996C78.39 161.996 78.2686 161.982 78.166 161.954V160.988C78.2406 160.988 78.3106 160.988 78.376 160.988H78.432C78.796 160.988 79.0433 160.923 79.174 160.792C79.3046 160.661 79.37 160.414 79.37 160.05V151.804ZM79.916 149.046C80.112 149.046 80.2753 149.116 80.406 149.256C80.5366 149.387 80.602 149.545 80.602 149.732C80.602 149.919 80.5366 150.082 80.406 150.222C80.2753 150.353 80.112 150.418 79.916 150.418C79.7293 150.418 79.566 150.353 79.426 150.222C79.2953 150.082 79.23 149.919 79.23 149.732C79.23 149.545 79.2953 149.387 79.426 149.256C79.566 149.116 79.7293 149.046 79.916 149.046ZM88.8168 158.034V158.958C88.4995 159.07 88.2521 159.126 88.0748 159.126C87.3281 159.126 86.9221 158.785 86.8568 158.104C86.3435 158.804 85.5268 159.154 84.4068 159.154C83.6321 159.154 83.0301 158.939 82.6008 158.51C82.2275 158.137 82.0408 157.656 82.0408 157.068C82.0408 156.396 82.2788 155.878 82.7548 155.514C83.0255 155.309 83.5901 155.108 84.4488 154.912L86.8008 154.38L86.8148 153.778C86.8148 153.059 86.2735 152.7 85.1908 152.7C84.1548 152.7 83.5995 153.12 83.5248 153.96H82.3628C82.3908 153.325 82.5495 152.84 82.8388 152.504C83.3335 151.935 84.1361 151.65 85.2468 151.65C87.0481 151.65 87.9488 152.303 87.9488 153.61V157.628C87.9488 157.983 88.1028 158.16 88.4108 158.16C88.4481 158.16 88.5461 158.132 88.7048 158.076C88.7608 158.057 88.7981 158.043 88.8168 158.034ZM86.8148 155.318L84.9668 155.794C84.3041 155.962 83.8468 156.135 83.5948 156.312C83.3521 156.489 83.2308 156.737 83.2308 157.054C83.2308 157.791 83.7068 158.16 84.6588 158.16C85.3308 158.16 85.9001 157.941 86.3668 157.502C86.6655 157.231 86.8148 156.923 86.8148 156.578V155.318ZM90.0754 151.804H91.1394V153.022C91.718 152.107 92.5114 151.65 93.5194 151.65C94.2194 151.65 94.7747 151.827 95.1854 152.182C95.596 152.527 95.8014 152.994 95.8014 153.582V159H94.6674V154.044C94.6674 153.615 94.532 153.274 94.2614 153.022C94 152.77 93.6407 152.644 93.1834 152.644C92.586 152.644 92.11 152.863 91.7554 153.302C91.4007 153.741 91.2234 154.324 91.2234 155.052V159H90.0754V151.804ZM102.17 160.19V161.086H96.696V160.19H102.17ZM103.049 149.704C103.926 149.135 104.813 148.85 105.709 148.85C106.586 148.85 107.244 149.107 107.683 149.62C108.066 150.068 108.257 150.665 108.257 151.412C108.257 152 108.108 152.574 107.809 153.134C107.538 153.61 107.062 154.254 106.381 155.066L104.407 157.306L103.833 158.006H108.425V158.398L107.935 159H102.573V157.992L103.637 156.718L105.793 154.212C106.222 153.699 106.526 153.269 106.703 152.924C106.946 152.457 107.067 152.005 107.067 151.566C107.067 151.081 106.922 150.689 106.633 150.39C106.344 150.091 105.956 149.942 105.471 149.942C104.902 149.942 104.309 150.161 103.693 150.6L103.049 149.704ZM112.575 159.182C111.334 159.182 110.447 158.533 109.915 157.236C109.57 156.405 109.397 155.374 109.397 154.142C109.397 152.593 109.668 151.314 110.209 150.306C110.741 149.298 111.53 148.794 112.575 148.794C113.592 148.794 114.372 149.284 114.913 150.264C115.482 151.263 115.767 152.541 115.767 154.1C115.767 155.565 115.534 156.741 115.067 157.628C114.516 158.664 113.686 159.182 112.575 159.182ZM114.549 154.128C114.549 151.281 113.891 149.858 112.575 149.858C111.268 149.858 110.615 151.272 110.615 154.1C110.615 155.285 110.722 156.177 110.937 156.774C111.245 157.661 111.791 158.104 112.575 158.104C113.891 158.104 114.549 156.779 114.549 154.128ZM117.199 149.704C118.077 149.135 118.963 148.85 119.859 148.85C120.737 148.85 121.395 149.107 121.833 149.62C122.216 150.068 122.407 150.665 122.407 151.412C122.407 152 122.258 152.574 121.959 153.134C121.689 153.61 121.213 154.254 120.531 155.066L118.557 157.306L117.983 158.006H122.575V158.398L122.085 159H116.723V157.992L117.787 156.718L119.943 154.212C120.373 153.699 120.676 153.269 120.853 152.924C121.096 152.457 121.217 152.005 121.217 151.566C121.217 151.081 121.073 150.689 120.783 150.39C120.494 150.091 120.107 149.942 119.621 149.942C119.052 149.942 118.459 150.161 117.843 150.6L117.199 149.704ZM128.643 148.976V155.486H130.127V156.564H128.643V158.468L128.041 159H127.453V156.564H123.351V155.514L127.355 148.976H128.643ZM127.453 150.544L124.527 155.486H127.453V150.544Z" fill="#000713" fill-opacity="0.624"/>
</g>
<path d="M0 133H256V131H0V133Z" fill="#01012E" fill-opacity="0.134" mask="url(#path-10-inside-3_1563_59869)"/>
<g clip-path="url(#clip5_1563_59869)">
<mask id="path-13-inside-4_1563_59869" fill="white">
<path d="M0 176H256V220H0V176Z"/>
</mask>
<path d="M0 176H256V220H0V176Z" fill="white" fill-opacity="0.01"/>
<rect width="256" height="44" transform="translate(0 176)" fill="white" fill-opacity="0.01"/>
<path d="M17.656 195.804H18.72V201.824C18.72 203.383 18.468 204.465 17.964 205.072C17.46 205.688 16.634 205.996 15.486 205.996C14.59 205.996 13.89 205.781 13.386 205.352C12.938 204.969 12.686 204.461 12.63 203.826H13.806C13.862 204.199 14.002 204.475 14.226 204.652C14.5527 204.904 14.9913 205.03 15.542 205.03C16.2887 205.03 16.8207 204.806 17.138 204.358C17.4087 203.975 17.544 203.322 17.544 202.398V201.936C16.9467 202.748 16.228 203.154 15.388 203.154C14.5667 203.154 13.8713 202.846 13.302 202.23C12.6953 201.567 12.392 200.662 12.392 199.514C12.392 198.282 12.7093 197.302 13.344 196.574C13.904 195.958 14.6087 195.65 15.458 195.65C16.3727 195.65 17.1053 196.061 17.656 196.882V195.804ZM15.584 196.7C14.968 196.7 14.478 196.947 14.114 197.442C13.7593 197.927 13.582 198.595 13.582 199.444C13.582 200.331 13.7873 201.007 14.198 201.474C14.5433 201.885 15.01 202.09 15.598 202.09C16.214 202.09 16.69 201.857 17.026 201.39C17.3713 200.923 17.544 200.275 17.544 199.444C17.544 198.529 17.348 197.829 16.956 197.344C16.6107 196.915 16.1533 196.7 15.584 196.7ZM20.3846 205.996V195.804H21.4486V196.91C21.9806 196.07 22.7459 195.65 23.7446 195.65C24.7619 195.65 25.5459 196.042 26.0966 196.826C26.5819 197.507 26.8246 198.403 26.8246 199.514C26.8246 200.699 26.5072 201.623 25.8726 202.286C25.3219 202.865 24.6079 203.154 23.7306 203.154C22.8439 203.154 22.1112 202.832 21.5326 202.188V205.996H20.3846ZM23.5486 196.714C22.9419 196.714 22.4519 196.961 22.0786 197.456C21.7146 197.951 21.5326 198.613 21.5326 199.444C21.5326 200.303 21.7426 200.975 22.1626 201.46C22.5172 201.871 22.9792 202.076 23.5486 202.076C24.1832 202.076 24.6872 201.838 25.0606 201.362C25.4432 200.877 25.6346 200.237 25.6346 199.444C25.6346 198.567 25.4199 197.876 24.9906 197.372C24.6079 196.933 24.1272 196.714 23.5486 196.714ZM31.0652 195.804V196.728H29.5952V201.516C29.5952 201.684 29.6512 201.829 29.7632 201.95C29.8845 202.062 30.0385 202.118 30.2252 202.118C30.4025 202.118 30.6732 202.076 31.0372 201.992L31.1632 203C30.5845 203.103 30.1458 203.154 29.8472 203.154C28.9232 203.154 28.4612 202.776 28.4612 202.02V196.728H27.4812V195.804H28.4612V194.334L29.5952 193.816V195.804H31.0652ZM36.8594 204.19V205.086H31.3854V204.19H36.8594ZM38.0745 193.13C38.6811 192.943 39.1758 192.85 39.5585 192.85C40.4918 192.85 41.2385 193.093 41.7985 193.578C42.3305 194.045 42.5965 194.67 42.5965 195.454C42.5965 196.77 42.0131 197.559 40.8465 197.82C41.5185 197.932 42.0458 198.217 42.4285 198.674C42.8205 199.131 43.0165 199.696 43.0165 200.368C43.0165 201.339 42.6385 202.076 41.8825 202.58C41.3038 202.963 40.5805 203.154 39.7125 203.154C39.1525 203.154 38.5925 203.075 38.0325 202.916L37.5845 202.356V201.922C38.2285 202.062 38.7931 202.132 39.2785 202.132C40.9678 202.132 41.8125 201.563 41.8125 200.424C41.8125 199.808 41.5558 199.29 41.0425 198.87C40.7531 198.637 40.4451 198.478 40.1185 198.394C39.8011 198.301 39.3298 198.249 38.7045 198.24V197.33H39.8945C40.3425 197.33 40.7065 197.185 40.9865 196.896C41.2758 196.597 41.4205 196.215 41.4205 195.748C41.4205 195.197 41.2385 194.763 40.8745 194.446C40.5105 194.119 40.0158 193.956 39.3905 193.956C39.0825 193.956 38.6438 194.017 38.0745 194.138V193.13ZM44.859 201.698C45.055 201.698 45.2183 201.763 45.349 201.894C45.4797 202.025 45.545 202.188 45.545 202.384C45.545 202.571 45.4797 202.734 45.349 202.874C45.2183 203.005 45.055 203.07 44.859 203.07C44.6723 203.07 44.509 203.005 44.369 202.874C44.2383 202.734 44.173 202.571 44.173 202.384C44.173 202.188 44.2383 202.025 44.369 201.894C44.509 201.763 44.6723 201.698 44.859 201.698ZM51.652 192.976V193.984H48.39L48.222 197.078C48.6514 197.013 48.992 196.98 49.244 196.98C50.28 196.98 51.078 197.297 51.638 197.932C52.1234 198.483 52.366 199.215 52.366 200.13C52.366 201.157 52.0067 201.931 51.288 202.454C50.7187 202.874 49.972 203.084 49.048 203.084C48.488 203.084 47.928 203 47.368 202.832L46.92 202.286V201.852C47.564 201.983 48.1287 202.048 48.614 202.048C49.482 202.048 50.1167 201.908 50.518 201.628C50.966 201.32 51.19 200.811 51.19 200.102C51.19 198.683 50.3547 197.974 48.684 197.974C48.292 197.974 47.7227 198.016 46.976 198.1L47.256 192.976H51.652ZM58.2969 204.19V205.086H52.8229V204.19H58.2969ZM62.032 195.804V196.728H60.562V201.516C60.562 201.684 60.618 201.829 60.73 201.95C60.8513 202.062 61.0053 202.118 61.192 202.118C61.3693 202.118 61.64 202.076 62.004 201.992L62.13 203C61.5513 203.103 61.1126 203.154 60.814 203.154C59.89 203.154 59.428 202.776 59.428 202.02V196.728H58.448V195.804H59.428V194.334L60.562 193.816V195.804H62.032ZM69.0302 203H67.8962V201.866C67.3829 202.725 66.6175 203.154 65.6002 203.154C64.9002 203.154 64.3402 202.981 63.9202 202.636C63.5095 202.281 63.3042 201.81 63.3042 201.222V195.804H64.4382V200.76C64.4382 201.18 64.5735 201.516 64.8442 201.768C65.1149 202.02 65.4789 202.146 65.9362 202.146C66.5335 202.146 67.0095 201.931 67.3642 201.502C67.7189 201.063 67.8962 200.475 67.8962 199.738V195.804H69.0302V203ZM71.0028 195.804H72.0668V197.12C72.4868 196.131 73.1494 195.636 74.0548 195.636C74.1668 195.636 74.3021 195.65 74.4608 195.678V196.854C73.7141 196.863 73.2008 196.971 72.9208 197.176C72.4074 197.549 72.1508 198.245 72.1508 199.262V203H71.0028V195.804ZM75.3729 192.976H76.5069V196.77C77.0389 196.023 77.7855 195.65 78.7469 195.65C79.7642 195.65 80.5482 196.023 81.0989 196.77C81.5842 197.423 81.8269 198.287 81.8269 199.36C81.8269 200.601 81.5049 201.567 80.8609 202.258C80.3009 202.855 79.5775 203.154 78.6909 203.154C77.6922 203.154 76.9315 202.776 76.4089 202.02V203H75.3729V192.976ZM78.5369 196.714C77.9209 196.714 77.4262 196.966 77.0529 197.47C76.6889 197.965 76.5069 198.623 76.5069 199.444C76.5069 200.303 76.7169 200.975 77.1369 201.46C77.5009 201.871 77.9675 202.076 78.5369 202.076C79.1715 202.076 79.6755 201.838 80.0489 201.362C80.4315 200.886 80.6229 200.247 80.6229 199.444C80.6229 198.567 80.4082 197.876 79.9789 197.372C79.6055 196.933 79.1249 196.714 78.5369 196.714ZM86.0534 195.65C87.1361 195.65 87.9621 196.028 88.5314 196.784C89.0354 197.437 89.2874 198.324 89.2874 199.444C89.2874 200.695 88.9608 201.647 88.3074 202.3C87.7474 202.869 86.9914 203.154 86.0394 203.154C84.9381 203.154 84.0981 202.785 83.5194 202.048C83.0154 201.404 82.7634 200.536 82.7634 199.444C82.7634 198.175 83.0948 197.199 83.7574 196.518C84.3268 195.939 85.0921 195.65 86.0534 195.65ZM86.0534 196.7C85.4001 196.7 84.8868 196.947 84.5134 197.442C84.1401 197.927 83.9534 198.595 83.9534 199.444C83.9534 200.331 84.1634 201.007 84.5834 201.474C84.9474 201.885 85.4328 202.09 86.0394 202.09C86.6834 202.09 87.1828 201.857 87.5374 201.39C87.9014 200.923 88.0834 200.275 88.0834 199.444C88.0834 198.529 87.8781 197.829 87.4674 197.344C87.1128 196.915 86.6414 196.7 86.0534 196.7ZM95.334 204.19V205.086H89.86V204.19H95.334ZM96.2411 195.804H97.3051V197.12C97.7251 196.131 98.3877 195.636 99.2931 195.636C99.4051 195.636 99.5404 195.65 99.6991 195.678V196.854C98.9524 196.863 98.4391 196.971 98.1591 197.176C97.6457 197.549 97.3891 198.245 97.3891 199.262V203H96.2411V195.804ZM106.911 199.738H101.605C101.614 200.354 101.745 200.844 101.997 201.208C102.398 201.796 102.977 202.09 103.733 202.09C104.666 202.09 105.296 201.647 105.623 200.76H106.771C106.622 201.516 106.276 202.104 105.735 202.524C105.194 202.944 104.512 203.154 103.691 203.154C102.599 203.154 101.764 202.781 101.185 202.034C100.672 201.381 100.415 200.517 100.415 199.444C100.415 198.203 100.751 197.237 101.423 196.546C102.011 195.949 102.772 195.65 103.705 195.65C104.386 195.65 104.984 195.813 105.497 196.14C106.02 196.467 106.393 196.915 106.617 197.484C106.813 197.969 106.911 198.707 106.911 199.696V199.738ZM105.679 198.8C105.679 198.175 105.492 197.671 105.119 197.288C104.755 196.896 104.284 196.7 103.705 196.7C103.117 196.7 102.636 196.891 102.263 197.274C101.899 197.647 101.694 198.156 101.647 198.8H105.679ZM114.862 202.034V202.958C114.544 203.07 114.297 203.126 114.12 203.126C113.373 203.126 112.967 202.785 112.902 202.104C112.388 202.804 111.572 203.154 110.452 203.154C109.677 203.154 109.075 202.939 108.646 202.51C108.272 202.137 108.086 201.656 108.086 201.068C108.086 200.396 108.324 199.878 108.8 199.514C109.07 199.309 109.635 199.108 110.494 198.912L112.846 198.38L112.86 197.778C112.86 197.059 112.318 196.7 111.236 196.7C110.2 196.7 109.644 197.12 109.57 197.96H108.408C108.436 197.325 108.594 196.84 108.884 196.504C109.378 195.935 110.181 195.65 111.292 195.65C113.093 195.65 113.994 196.303 113.994 197.61V201.628C113.994 201.983 114.148 202.16 114.456 202.16C114.493 202.16 114.591 202.132 114.75 202.076C114.806 202.057 114.843 202.043 114.862 202.034ZM112.86 199.318L111.012 199.794C110.349 199.962 109.892 200.135 109.64 200.312C109.397 200.489 109.276 200.737 109.276 201.054C109.276 201.791 109.752 202.16 110.704 202.16C111.376 202.16 111.945 201.941 112.412 201.502C112.71 201.231 112.86 200.923 112.86 200.578V199.318ZM117.24 192.976V203H116.092V192.976H117.24ZM123.621 204.19V205.086H118.147V204.19H123.621ZM130.618 199.738H125.312C125.322 200.354 125.452 200.844 125.704 201.208C126.106 201.796 126.684 202.09 127.44 202.09C128.374 202.09 129.004 201.647 129.33 200.76H130.478C130.329 201.516 129.984 202.104 129.442 202.524C128.901 202.944 128.22 203.154 127.398 203.154C126.306 203.154 125.471 202.781 124.892 202.034C124.379 201.381 124.122 200.517 124.122 199.444C124.122 198.203 124.458 197.237 125.13 196.546C125.718 195.949 126.479 195.65 127.412 195.65C128.094 195.65 128.691 195.813 129.204 196.14C129.727 196.467 130.1 196.915 130.324 197.484C130.52 197.969 130.618 198.707 130.618 199.696V199.738ZM129.386 198.8C129.386 198.175 129.2 197.671 128.826 197.288C128.462 196.896 127.991 196.7 127.412 196.7C126.824 196.7 126.344 196.891 125.97 197.274C125.606 197.647 125.401 198.156 125.354 198.8H129.386ZM137.295 197.778H136.035C135.997 197.059 135.517 196.7 134.593 196.7C134.117 196.7 133.739 196.793 133.459 196.98C133.188 197.157 133.053 197.4 133.053 197.708C133.053 198.175 133.496 198.511 134.383 198.716L135.489 198.968C136.207 199.136 136.725 199.374 137.043 199.682C137.36 199.99 137.519 200.41 137.519 200.942C137.519 201.623 137.253 202.165 136.721 202.566C136.189 202.958 135.47 203.154 134.565 203.154C133.575 203.154 132.824 202.921 132.311 202.454C131.881 202.071 131.653 201.563 131.625 200.928H132.927C133.001 201.255 133.104 201.493 133.235 201.642C133.487 201.941 133.958 202.09 134.649 202.09C135.162 202.09 135.568 201.997 135.867 201.81C136.175 201.614 136.329 201.357 136.329 201.04C136.329 200.564 135.96 200.237 135.223 200.06L134.145 199.808C133.323 199.612 132.749 199.379 132.423 199.108C132.049 198.8 131.863 198.357 131.863 197.778C131.863 197.125 132.11 196.607 132.605 196.224C133.109 195.841 133.781 195.65 134.621 195.65C135.498 195.65 136.179 195.869 136.665 196.308C137.085 196.691 137.295 197.181 137.295 197.778ZM141.876 195.804V196.728H140.406V201.516C140.406 201.684 140.462 201.829 140.574 201.95C140.695 202.062 140.849 202.118 141.036 202.118C141.213 202.118 141.484 202.076 141.848 201.992L141.974 203C141.395 203.103 140.956 203.154 140.658 203.154C139.734 203.154 139.272 202.776 139.272 202.02V196.728H138.292V195.804H139.272V194.334L140.406 193.816V195.804H141.876ZM149.602 202.034V202.958C149.285 203.07 149.037 203.126 148.86 203.126C148.113 203.126 147.707 202.785 147.642 202.104C147.129 202.804 146.312 203.154 145.192 203.154C144.417 203.154 143.815 202.939 143.386 202.51C143.013 202.137 142.826 201.656 142.826 201.068C142.826 200.396 143.064 199.878 143.54 199.514C143.811 199.309 144.375 199.108 145.234 198.912L147.586 198.38L147.6 197.778C147.6 197.059 147.059 196.7 145.976 196.7C144.94 196.7 144.385 197.12 144.31 197.96H143.148C143.176 197.325 143.335 196.84 143.624 196.504C144.119 195.935 144.921 195.65 146.032 195.65C147.833 195.65 148.734 196.303 148.734 197.61V201.628C148.734 201.983 148.888 202.16 149.196 202.16C149.233 202.16 149.331 202.132 149.49 202.076C149.546 202.057 149.583 202.043 149.602 202.034ZM147.6 199.318L145.752 199.794C145.089 199.962 144.632 200.135 144.38 200.312C144.137 200.489 144.016 200.737 144.016 201.054C144.016 201.791 144.492 202.16 145.444 202.16C146.116 202.16 146.685 201.941 147.152 201.502C147.451 201.231 147.6 200.923 147.6 200.578V199.318ZM153.675 195.804V196.728H152.205V201.516C152.205 201.684 152.261 201.829 152.373 201.95C152.494 202.062 152.648 202.118 152.835 202.118C153.012 202.118 153.283 202.076 153.647 201.992L153.773 203C153.194 203.103 152.755 203.154 152.457 203.154C151.533 203.154 151.071 202.776 151.071 202.02V196.728H150.091V195.804H151.071V194.334L152.205 193.816V195.804H153.675ZM161.093 199.738H155.787C155.796 200.354 155.927 200.844 156.179 201.208C156.58 201.796 157.159 202.09 157.915 202.09C158.848 202.09 159.478 201.647 159.805 200.76H160.953C160.803 201.516 160.458 202.104 159.917 202.524C159.375 202.944 158.694 203.154 157.873 203.154C156.781 203.154 155.945 202.781 155.367 202.034C154.853 201.381 154.597 200.517 154.597 199.444C154.597 198.203 154.933 197.237 155.605 196.546C156.193 195.949 156.953 195.65 157.887 195.65C158.568 195.65 159.165 195.813 159.679 196.14C160.201 196.467 160.575 196.915 160.799 197.484C160.995 197.969 161.093 198.707 161.093 199.696V199.738ZM159.861 198.8C159.861 198.175 159.674 197.671 159.301 197.288C158.937 196.896 158.465 196.7 157.887 196.7C157.299 196.7 156.818 196.891 156.445 197.274C156.081 197.647 155.875 198.156 155.829 198.8H159.861Z" fill="#000713" fill-opacity="0.624"/>
</g>
<path d="M0 177H256V175H0V177Z" fill="#01012E" fill-opacity="0.134" mask="url(#path-13-inside-4_1563_59869)"/>
</g>
<path d="M6 0.5H250C253.038 0.5 255.5 2.96243 255.5 6V214C255.5 217.038 253.038 219.5 250 219.5H6C2.96243 219.5 0.5 217.038 0.5 214V5.99999C0.5 2.96243 2.96243 0.5 6 0.5Z" stroke="#01012E" stroke-opacity="0.134"/>
<defs>
<clipPath id="clip0_1563_59869">
<path d="M0 5.99999C0 2.68629 2.68629 0 6 0H250C253.314 0 256 2.68629 256 6V214C256 217.314 253.314 220 250 220H6C2.68629 220 0 217.314 0 214V5.99999Z" fill="white"/>
</clipPath>
<clipPath id="clip1_1563_59869">
<rect width="256" height="44" fill="white"/>
</clipPath>
<clipPath id="clip2_1563_59869">
<path d="M0 44H256V88H0V44Z" fill="white"/>
</clipPath>
<clipPath id="clip3_1563_59869">
<path d="M0 88H256V132H0V88Z" fill="white"/>
</clipPath>
<clipPath id="clip4_1563_59869">
<path d="M0 132H256V176H0V132Z" fill="white"/>
</clipPath>
<clipPath id="clip5_1563_59869">
<path d="M0 176H256V220H0V176Z" fill="white"/>
</clipPath>
</defs>
</svg>
